%FSTAX23Y23*%
%MOIN*%
%SFA1B1*%

%IPPOS*%
%ADD11C,0.007874*%
%LNmtr_dvr_pcb_top_assembly-1*%
%LPD*%
G36*
X05165Y03255D02*
X05165Y03254D01*
X05165Y03253*
X05165Y03253*
X05164Y03252*
X05164Y03251*
Y03251*
X05164Y03251*
Y03251*
X05164Y03251*
X05164Y03251*
X05164Y0325*
X05164Y0325*
X05163Y03249*
X05163Y03248*
X05163Y03248*
X05162Y03248*
X05162Y03248*
X05162Y03248*
X05162Y03247*
X05162Y03247*
X05161Y03247*
X05161Y03246*
X0516Y03246*
X05159Y03245*
X05158Y03245*
X05158*
X05158Y03245*
X05158Y03245*
X05158Y03245*
X05157Y03244*
X05157Y03244*
X05157Y03244*
X05156Y03244*
X05156Y03244*
X05156Y03244*
X05155Y03244*
X05153Y03244*
X05152Y03244*
X05152*
X05152*
X05152*
X05152*
X05151Y03244*
X05151*
X0515Y03244*
X0515Y03244*
X05149Y03244*
X05148Y03244*
X05147Y03244*
X05147*
X05147Y03244*
X05147Y03244*
X05147Y03244*
X05146Y03245*
X05146Y03245*
X05145Y03245*
X05145Y03245*
X05144Y03246*
X05143Y03246*
X05143Y03246*
X05143Y03246*
X05143Y03246*
X05143Y03247*
X05142Y03247*
X05142Y03248*
X05142Y03248*
X05141Y03248*
X05141Y03248*
X05141Y03249*
X05141Y03249*
X05141Y03249*
X0514Y0325*
X0514Y0325*
X0514Y03251*
X0514Y03251*
Y03251*
X0514Y03252*
X0514Y03252*
X0514Y03252*
X0514Y03253*
X0514Y03253*
X0514Y03254*
X0514Y03255*
X0514Y03255*
Y03265*
X05165*
Y03255*
G37*
G36*
X05158Y03238D02*
X05159Y03238D01*
X05159Y03238*
X05159Y03238*
X05159Y03237*
X05159Y03237*
X05159Y03236*
X0516Y03236*
X0516Y03235*
X05161Y03234*
X05161Y03233*
X05161Y03233*
X05161Y03233*
X05162Y03233*
X05162Y03233*
X05162Y03233*
X05163Y03232*
X05163Y03232*
X05164Y03231*
X05164Y03231*
X05165Y03231*
Y03229*
X0514*
Y03232*
X05159*
X05159Y03232*
X05159Y03232*
X05159Y03232*
X05159Y03233*
X05158Y03233*
X05158Y03234*
X05157Y03234*
X05157Y03235*
Y03235*
X05157Y03235*
X05157Y03235*
X05157Y03235*
X05156Y03236*
X05156Y03236*
X05156Y03237*
X05156Y03237*
X05155Y03238*
X05158*
Y03238*
G37*
G36*
X05165Y02965D02*
X05165Y02964D01*
X05165Y02963*
X05165Y02963*
X05164Y02962*
X05164Y02961*
Y02961*
X05164Y02961*
Y02961*
X05164Y02961*
X05164Y02961*
X05164Y0296*
X05164Y0296*
X05163Y02959*
X05163Y02958*
X05163Y02958*
X05162Y02958*
X05162Y02958*
X05162Y02958*
X05162Y02957*
X05162Y02957*
X05161Y02957*
X05161Y02956*
X0516Y02956*
X05159Y02955*
X05158Y02955*
X05158*
X05158Y02955*
X05158Y02955*
X05158Y02955*
X05157Y02954*
X05157Y02954*
X05157Y02954*
X05156Y02954*
X05156Y02954*
X05156Y02954*
X05155Y02954*
X05153Y02954*
X05152Y02954*
X05152*
X05152*
X05152*
X05152*
X05151Y02954*
X05151*
X0515Y02954*
X0515Y02954*
X05149Y02954*
X05148Y02954*
X05147Y02954*
X05147*
X05147Y02954*
X05147Y02954*
X05147Y02954*
X05146Y02955*
X05146Y02955*
X05145Y02955*
X05145Y02955*
X05144Y02956*
X05143Y02956*
X05143Y02956*
X05143Y02956*
X05143Y02956*
X05143Y02957*
X05142Y02957*
X05142Y02958*
X05142Y02958*
X05141Y02958*
X05141Y02958*
X05141Y02959*
X05141Y02959*
X05141Y02959*
X0514Y0296*
X0514Y0296*
X0514Y02961*
X0514Y02961*
Y02961*
X0514Y02962*
X0514Y02962*
X0514Y02962*
X0514Y02963*
X0514Y02963*
X0514Y02964*
X0514Y02965*
X0514Y02965*
Y02975*
X05165*
Y02965*
G37*
G36*
X0514Y02951D02*
X05141Y02951D01*
X05141Y02951*
X05141Y02951*
X05142Y0295*
X05142*
X05142Y0295*
X05142Y0295*
X05142Y0295*
X05143Y0295*
X05143Y0295*
X05144Y02949*
X05144Y02949*
X05145Y02948*
X05145*
X05145Y02948*
X05145Y02948*
X05146Y02948*
X05146Y02947*
X05147Y02947*
X05147Y02946*
X05148Y02945*
X05149Y02944*
X05149Y02944*
X05149Y02944*
X05149Y02944*
X05149Y02944*
X0515Y02943*
X0515Y02943*
X0515Y02943*
X05151Y02942*
X05152Y02941*
X05152Y0294*
X05153Y0294*
X05153Y02939*
X05154Y02939*
X05154Y02939*
X05154*
X05154Y02939*
X05154Y02939*
X05154Y02939*
X05155Y02938*
X05155Y02938*
X05156Y02938*
X05157Y02938*
X05157Y02937*
X05158Y02937*
X05158*
X05158*
X05158Y02937*
X05159Y02937*
X05159Y02937*
X05159Y02938*
X0516Y02938*
X0516Y02938*
X05161Y02939*
X05161Y02939*
X05161Y02939*
X05161Y02939*
X05162Y0294*
X05162Y0294*
X05162Y02941*
X05162Y02941*
X05162Y02942*
Y02942*
X05162Y02942*
X05162Y02943*
X05162Y02943*
X05162Y02944*
X05162Y02945*
X05161Y02945*
X05161Y02946*
X05161Y02946*
X05161Y02946*
X0516Y02946*
X0516Y02946*
X05159Y02947*
X05159Y02947*
X05158Y02947*
X05157Y02947*
X05158Y0295*
X05158*
X05158Y0295*
X05158*
X05158Y0295*
X05158Y0295*
X05159Y0295*
X05159Y0295*
X0516Y0295*
X0516Y02949*
X05161Y02949*
X05162Y02949*
X05162Y02948*
X05163Y02948*
X05163Y02948*
X05163Y02948*
X05163Y02948*
X05163Y02948*
X05163Y02947*
X05163Y02947*
X05163Y02947*
X05164Y02947*
X05164Y02946*
X05164Y02946*
X05164Y02945*
X05164Y02945*
X05165Y02944*
X05165Y02944*
X05165Y02943*
X05165Y02943*
X05165Y02942*
Y02942*
X05165Y02941*
X05165Y02941*
X05165Y02941*
X05165Y0294*
X05165Y0294*
X05164Y02939*
X05164Y02938*
X05164Y02938*
X05163Y02937*
X05163Y02937*
X05163Y02936*
X05163Y02936*
X05163Y02936*
X05163Y02936*
X05162Y02936*
X05162Y02936*
X05162Y02936*
X05162Y02935*
X05161Y02935*
X05161Y02935*
X0516Y02934*
X05159Y02934*
X05159Y02934*
X05158Y02934*
X05158Y02934*
X05158*
X05158*
X05157Y02934*
X05157Y02934*
X05156Y02934*
X05156Y02934*
X05155Y02935*
X05155Y02935*
X05155Y02935*
X05155Y02935*
X05154Y02935*
X05154Y02935*
X05153Y02936*
X05153Y02936*
X05152Y02936*
X05152Y02937*
X05152Y02937*
X05151Y02937*
X05151Y02937*
X05151Y02937*
X05151Y02938*
X05151Y02938*
X0515Y02938*
X0515Y02939*
X0515Y02939*
X05149Y02939*
X05149Y0294*
X05148Y0294*
X05148Y02941*
X05147Y02942*
X05147Y02942*
X05147Y02942*
X05147Y02942*
X05147Y02942*
X05147Y02942*
X05147Y02943*
X05146Y02943*
X05146Y02944*
X05145Y02944*
X05144Y02945*
X05144Y02945*
X05144Y02945*
X05144Y02945*
X05144Y02945*
X05144Y02945*
X05144Y02946*
X05143Y02946*
X05143Y02946*
X05142Y02947*
Y02934*
X0514*
Y02951*
X0514*
X0514*
X0514*
X0514Y02951*
G37*
%LNmtr_dvr_pcb_top_assembly-2*%
%LPC*%
G36*
X05162Y03261D02*
X05142D01*
Y03255*
X05143Y03255*
X05143Y03254*
X05143Y03254*
X05143Y03253*
X05143Y03252*
X05143Y03252*
X05143Y03252*
X05143Y03252*
X05143Y03251*
X05143Y03251*
X05143Y03251*
X05144Y0325*
X05144Y0325*
X05144Y0325*
X05144Y0325*
X05144Y03249*
X05145Y03249*
X05145Y03249*
X05146Y03249*
X05146Y03248*
X05147Y03248*
X05147Y03248*
X05147*
X05148Y03248*
X05148Y03248*
X05148Y03248*
X05148Y03248*
X05148Y03248*
X05148Y03248*
X05149Y03247*
X05149Y03247*
X0515Y03247*
X05151Y03247*
X05152Y03247*
X05152*
X05152*
X05153*
X05153Y03247*
X05153*
X05154Y03247*
X05154Y03247*
X05154Y03247*
X05155Y03247*
X05157Y03248*
X05157Y03248*
X05158Y03248*
X05158Y03248*
X05158*
X05158Y03248*
X05159Y03249*
X05159Y03249*
X05159Y03249*
X05159Y03249*
X0516Y0325*
X0516Y0325*
X05161Y03251*
X05161Y03252*
X05161Y03252*
X05161Y03252*
X05161Y03252*
X05161Y03253*
X05162Y03253*
X05162Y03254*
X05162Y03254*
Y03255*
X05162Y03255*
Y03261*
G37*
G36*
Y02971D02*
X05142D01*
Y02965*
X05143Y02965*
X05143Y02964*
X05143Y02964*
X05143Y02963*
X05143Y02962*
X05143Y02962*
X05143Y02962*
X05143Y02962*
X05143Y02961*
X05143Y02961*
X05143Y02961*
X05144Y0296*
X05144Y0296*
X05144Y0296*
X05144Y0296*
X05144Y02959*
X05145Y02959*
X05145Y02959*
X05146Y02959*
X05146Y02958*
X05147Y02958*
X05147Y02958*
X05147*
X05148Y02958*
X05148Y02958*
X05148Y02958*
X05148Y02958*
X05148Y02958*
X05148Y02958*
X05149Y02957*
X05149Y02957*
X0515Y02957*
X05151Y02957*
X05152Y02957*
X05152*
X05152*
X05153*
X05153Y02957*
X05153*
X05154Y02957*
X05154Y02957*
X05154Y02957*
X05155Y02957*
X05157Y02958*
X05157Y02958*
X05158Y02958*
X05158Y02958*
X05158*
X05158Y02958*
X05159Y02959*
X05159Y02959*
X05159Y02959*
X05159Y02959*
X0516Y0296*
X0516Y0296*
X05161Y02961*
X05161Y02962*
X05161Y02962*
X05161Y02962*
X05161Y02962*
X05161Y02963*
X05162Y02963*
X05162Y02964*
X05162Y02964*
Y02965*
X05162Y02965*
Y02971*
G37*
%LNmtr_dvr_pcb_top_assembly-3*%
%LPD*%
G54D11*
X04842Y02388D02*
Y02801D01*
X05197*
Y02388D02*
Y02801D01*
X04842Y02388D02*
X05197D01*
X04487Y02383D02*
Y02796D01*
X04842*
Y02383D02*
Y02796D01*
X04487Y02383D02*
X04842D01*
X03977Y02517D02*
Y02632D01*
X03922Y02517D02*
X03977D01*
X03922D02*
Y02632D01*
X03977*
X04256Y02527D02*
Y02609D01*
X04213Y02527D02*
X04256D01*
X04213D02*
Y02609D01*
X04256*
X04375Y02768D02*
Y02811D01*
Y02768D02*
X04456D01*
Y02811*
X04375D02*
X04456D01*
X04663Y02876D02*
Y02963D01*
Y02876D02*
X04836D01*
Y02963*
X04663D02*
X04836D01*
X04663Y02971D02*
Y03058D01*
Y02971D02*
X04836D01*
Y03058*
X04663D02*
X04836D01*
X05198Y03133D02*
Y03396D01*
X05081Y03133D02*
X05198D01*
X05081D02*
Y03396D01*
X05198*
X05011Y03219D02*
Y033D01*
X04968Y03219D02*
X05011D01*
X04968D02*
Y033D01*
X05011*
X05198Y02843D02*
Y03106D01*
X05081Y02843D02*
X05198D01*
X05081D02*
Y03106D01*
X05198*
X05026Y02939D02*
Y0302D01*
X04983Y02939D02*
X05026D01*
X04983D02*
Y0302D01*
X05026*
M02*