%FSTAX23Y23*%
%MOIN*%
%SFA1B1*%

%IPPOS*%
%AMD35*
4,1,8,-0.035500,0.015700,-0.035500,-0.015700,-0.015700,-0.035500,0.015700,-0.035500,0.035500,-0.015700,0.035500,0.015700,0.015700,0.035500,-0.015700,0.035500,-0.035500,0.015700,0.0*
1,1,0.039496,-0.015700,0.015700*
1,1,0.039496,-0.015700,-0.015700*
1,1,0.039496,0.015700,-0.015700*
1,1,0.039496,0.015700,0.015700*
%
%ADD19R,0.098425X0.137795*%
%ADD20R,0.035909X0.037744*%
%ADD21R,0.026476X0.029106*%
%ADD22R,0.028165X0.026476*%
%ADD26R,0.045500X0.067252*%
%ADD27R,0.070866X0.082677*%
%ADD28R,0.055244X0.055244*%
%ADD29R,0.067055X0.070992*%
%ADD30R,0.029653X0.059181*%
%ADD31R,0.039496X0.066071*%
%ADD32O,0.074929X0.025716*%
%ADD33R,0.126110X0.126110*%
%ADD34R,0.035559X0.033590*%
G04~CAMADD=35~8~0.0~0.0~709.9~709.9~197.5~0.0~15~0.0~0.0~0.0~0.0~0~0.0~0.0~0.0~0.0~0~0.0~0.0~0.0~90.0~710.0~710.0*
%ADD35D35*%
%ADD36C,0.070992*%
%ADD37C,0.027685*%
%LNmtr_dvr_pcb_soldermask_top-1*%
%LPD*%
G36*
X04132Y02684D02*
X04133Y02684D01*
X04133Y02684*
X04134Y02683*
X04134Y02683*
X04135Y02683*
X04135Y02682*
X04135Y02682*
X04136Y02682*
X04136Y02681*
X04136Y02681*
X04136Y0268*
Y02556*
X04136Y02555*
X04136Y02555*
X04136Y02554*
X04135Y02554*
X04135Y02554*
X04135Y02553*
X04134Y02553*
X04134Y02553*
X04133Y02552*
X04133Y02552*
X04132Y02552*
X04132Y02552*
X04059*
X04059Y02552*
X04058Y02552*
X04057Y02552*
X04057Y02553*
X04057Y02553*
X04056Y02553*
X04056Y02554*
X04056Y02554*
X04055Y02554*
X04055Y02555*
X04055Y02555*
X04055Y02556*
Y0268*
X04055Y02681*
X04055Y02681*
X04055Y02682*
X04056Y02682*
X04056Y02682*
X04056Y02683*
X04057Y02683*
X04057Y02683*
X04057Y02684*
X04058Y02684*
X04059Y02684*
X04059Y02684*
X04132*
X04132Y02684*
G37*
G54D19*
X0502Y02467D03*
Y02722D03*
X04665Y02462D03*
Y02717D03*
G54D20*
X0395Y02603D03*
Y02546D03*
G54D21*
X04235Y02586D03*
Y0255D03*
X0499Y03278D03*
Y03241D03*
X05005Y02998D03*
Y02961D03*
G54D22*
X04435Y0279D03*
X04397D03*
G54D26*
X04804Y0292D03*
X04695D03*
X04804Y03015D03*
X04695D03*
G54D27*
X0514Y03351D03*
Y03178D03*
Y03061D03*
Y02888D03*
G54D28*
X03874Y02819D03*
Y0274D03*
X03889Y03224D03*
Y03145D03*
G54D29*
X04002Y0278D03*
X04017Y03185D03*
G54D30*
X04036Y02525D03*
X04155D03*
G54D31*
X04095Y02528D03*
G54D32*
X04179Y03044D03*
Y03018D03*
Y02993D03*
Y02967D03*
Y02942D03*
Y02916D03*
Y02891D03*
Y02865D03*
X0442Y03044D03*
Y03018D03*
Y02993D03*
Y02967D03*
Y02942D03*
Y02916D03*
Y02891D03*
Y02865D03*
G54D33*
X043Y02955D03*
G54D34*
X03976Y02895D03*
X04013D03*
X03971Y02955D03*
X04008D03*
X04095Y03165D03*
X04132D03*
X04106Y0279D03*
X04143D03*
X03971Y0307D03*
X04008D03*
X03976Y03005D03*
X04013D03*
G54D35*
X03615Y0252D03*
X05295Y0321D03*
X0361Y0279D03*
X053Y02935D03*
G54D36*
X03615Y0262D03*
X05295Y0331D03*
X0361Y0319D03*
Y0309D03*
Y0289D03*
Y0299D03*
X053Y03035D03*
G54D37*
X04445Y0245D03*
X03835Y03125D03*
X03825Y0275D03*
X0451Y02865D03*
X04548Y02968D03*
X04555Y0289D03*
X04575Y02945D03*
X0442Y03095D03*
X04235Y0264D03*
X04175Y03165D03*
X04805Y0309D03*
X0395Y0266D03*
X04955Y02995D03*
X0496Y02955D03*
X04945Y03245D03*
Y0328D03*
X04555Y0302D03*
X04256Y02998D03*
X043D03*
X04343D03*
X04256Y02955D03*
X043D03*
X04343D03*
X04256Y02911D03*
X043D03*
X04343D03*
M02*