%FSTAX23Y23*%
%MOIN*%
%SFA1B1*%

%IPPOS*%
%AMD40*
4,1,8,-0.031500,0.015700,-0.031500,-0.015700,-0.015700,-0.031500,0.015700,-0.031500,0.031500,-0.015700,0.031500,0.015700,0.015700,0.031500,-0.015700,0.031500,-0.031500,0.015700,0.0*
1,1,0.031496,-0.015700,0.015700*
1,1,0.031496,-0.015700,-0.015700*
1,1,0.031496,0.015700,-0.015700*
1,1,0.031496,0.015700,0.015700*
%
%ADD15R,0.047244X0.047244*%
%ADD16R,0.059055X0.062992*%
%ADD17R,0.021654X0.051181*%
%ADD18R,0.031496X0.058071*%
%ADD19R,0.098425X0.137795*%
%ADD20R,0.035909X0.037744*%
%ADD21R,0.026476X0.029106*%
%ADD22R,0.028165X0.026476*%
%ADD23O,0.066929X0.017716*%
%ADD24R,0.118110X0.118110*%
%ADD25R,0.027559X0.025591*%
%ADD26R,0.045500X0.067252*%
%ADD27R,0.070866X0.082677*%
%ADD38C,0.011811*%
%ADD39C,0.010000*%
G04~CAMADD=40~8~0.0~0.0~629.9~629.9~157.5~0.0~15~0.0~0.0~0.0~0.0~0~0.0~0.0~0.0~0.0~0~0.0~0.0~0.0~90.0~630.0~630.0*
%ADD40D40*%
%ADD41C,0.062992*%
%ADD42C,0.019685*%
%LNmtr_dvr_pcb_copper_signal_top-1*%
%LPD*%
G36*
X04059Y02556D02*
Y0268D01*
X04132*
Y02556*
X04059*
G37*
G54D15*
X03874Y02819D03*
Y0274D03*
X03889Y03224D03*
Y03145D03*
G54D16*
X04002Y0278D03*
X04017Y03185D03*
G54D17*
X04036Y02525D03*
X04155D03*
G54D18*
X04095Y02528D03*
G54D19*
X0502Y02467D03*
Y02722D03*
X04665Y02462D03*
Y02717D03*
G54D20*
X0395Y02603D03*
Y02546D03*
G54D21*
X04235Y02586D03*
Y0255D03*
X0499Y03278D03*
Y03241D03*
X05005Y02998D03*
Y02961D03*
G54D22*
X04435Y0279D03*
X04397D03*
G54D23*
X04179Y03044D03*
Y03018D03*
Y02993D03*
Y02967D03*
Y02942D03*
Y02916D03*
Y02891D03*
Y02865D03*
X0442Y03044D03*
Y03018D03*
Y02993D03*
Y02967D03*
Y02942D03*
Y02916D03*
Y02891D03*
Y02865D03*
G54D24*
X043Y02955D03*
G54D25*
X03976Y02895D03*
X04013D03*
X03971Y02955D03*
X04008D03*
X04095Y03165D03*
X04132D03*
X04106Y0279D03*
X04143D03*
X03971Y0307D03*
X04008D03*
X03976Y03005D03*
X04013D03*
G54D26*
X04804Y0292D03*
X04695D03*
X04804Y03015D03*
X04695D03*
G54D27*
X0514Y03351D03*
Y03178D03*
Y03061D03*
Y02888D03*
G54D38*
X04143Y0279D02*
X04396D01*
X04453Y02447D02*
X0504D01*
X03946Y02549D02*
X03962Y02533D01*
X03962*
X03974Y02522*
X0404*
X03946Y02549D02*
Y0255D01*
X04452Y02448D02*
X04453Y02447D01*
X04445Y0245D02*
X04446Y02448D01*
X04452*
X03868Y02603D02*
X03921Y0255D01*
X03868Y02603D02*
Y0274D01*
X03921Y0255D02*
X03946D01*
X03868Y0274D02*
X03879Y0275D01*
X03825Y0275D02*
X03878D01*
X04265Y0255D02*
X04435Y0272D01*
X03615Y0252D02*
X0366Y02475D01*
X04126D02*
X04159Y02507D01*
X0366Y02475D02*
X04126D01*
X04435Y0272D02*
Y0279D01*
X03835Y03125D02*
X03883D01*
X04435Y02865D02*
X04509D01*
X0442Y03044D02*
Y03095D01*
X04235Y02586D02*
Y0264D01*
X04132Y03165D02*
X04175D01*
X04179Y03044D02*
Y03157D01*
X04805Y03015D02*
Y0309D01*
X04804Y0292D02*
Y03015D01*
X0395Y02603D02*
Y0266D01*
X04143Y02851D02*
X04157Y02865D01*
X04143Y0279D02*
Y02851D01*
X0465Y02702D02*
X04978D01*
X04582Y0279D02*
X0465Y02722D01*
X04435Y0279D02*
X0458D01*
X04435D02*
Y02861D01*
X04159Y02522D02*
X04208D01*
X04235Y02548*
G54D39*
X043Y02886D02*
Y02911D01*
Y02886D02*
X04396Y0279D01*
X04299Y02911D02*
X04304Y02915D01*
X04285Y02934D02*
X04304Y02915D01*
X04256Y02911D02*
X04285Y0294D01*
X04396Y0279D02*
X04397D01*
X04285Y02934D02*
Y0294D01*
X04256Y02911D02*
D01*
X04104Y02565D02*
X04125Y02586D01*
X04104Y0253D02*
Y02565D01*
X041Y02525D02*
X04104Y0253D01*
X0402Y02943D02*
X04148D01*
X04008Y02955D02*
X04009D01*
X0402Y02943*
X04014Y02895D02*
X04022Y02902D01*
Y02903D02*
X04033Y02914D01*
X04013Y02895D02*
X04014D01*
X04022Y02902D02*
Y02903D01*
X04033Y02914D02*
X04148D01*
X04148Y02915*
X04178*
X04179Y02916*
X0361Y029D02*
X03665Y02955D01*
X03971*
X04148Y02943D02*
X04148Y02943D01*
X04178D02*
X04179Y02942D01*
X04148Y02943D02*
X04178D01*
X03639Y03005D02*
X03976D01*
X0361Y0299D02*
X03624D01*
X03639Y03005*
X04013D02*
X04014D01*
X04022Y02996D02*
X0405Y02967D01*
X04014Y03005D02*
X04022Y02997D01*
X0405Y02967D02*
X04179D01*
X04022Y02996D02*
Y02997D01*
X04014Y03064D02*
X04017Y03062D01*
X04017*
X04086Y02993D02*
X04179D01*
X04014Y03064D02*
Y03065D01*
X04017Y03062D02*
X04086Y02993D01*
X0396Y0305D02*
X03975Y03065D01*
X0465Y02702D02*
Y02722D01*
X04012Y03165D02*
X04095D01*
X04235Y0255D02*
X04265D01*
X03878Y0275D02*
X03879Y0275D01*
X03883Y03125D02*
X03884Y03125D01*
X04509Y02865D02*
X0451Y02865D01*
X04553Y02891D02*
X04555Y0289D01*
X0442Y02891D02*
X04553D01*
X0442Y02865D02*
X04431D01*
X0442Y02967D02*
X04548D01*
X04548Y02968*
X0442Y02942D02*
X04575D01*
X04695Y03014D02*
Y03025D01*
X0442Y02993D02*
X04675D01*
X04695Y03014*
X0442Y03044D02*
X0442Y03044D01*
X04125Y02586D02*
X04235D01*
X04175Y03162D02*
X04179Y03157D01*
X04175Y03162D02*
Y03165D01*
X04804Y03015D02*
X04805Y03015D01*
X04157Y02865D02*
X04179D01*
X03879Y02829D02*
X03916Y02791D01*
X04005*
X04007Y0279*
X0362Y03059D02*
X0363Y0305D01*
X0362Y03059D02*
Y03079D01*
X0361Y0309D02*
X0362Y03079D01*
X0363Y0305D02*
X0396D01*
X05121Y03159D02*
X05161Y032D01*
X05013Y03241D02*
X05095Y03159D01*
X0495Y03241D02*
X05013D01*
X05095Y03159D02*
X05121D01*
X0512Y02888D02*
Y02894D01*
X05061Y02905D02*
X05109D01*
X05014Y02952D02*
X05061Y02905D01*
X05109D02*
X0512Y02894D01*
X05005Y02999D02*
X0505Y03045D01*
X053*
X0514Y02888D02*
Y02889D01*
X0517Y0292*
X053*
X0528Y032D02*
X05295Y03215D01*
X05161Y032D02*
X0528D01*
X0514Y03345D02*
Y03351D01*
X0517Y03315D02*
X05176D01*
X05063Y03351D02*
X0514D01*
Y03345D02*
X0517Y03315D01*
X05176D02*
X05176Y03315D01*
X05295*
X0499Y03279D02*
X04998Y03287D01*
X04999D02*
X05056Y03344D01*
X05063Y03351*
X04998Y03287D02*
X04999D01*
X0499Y03278D02*
Y03279D01*
X04947Y03245D02*
X0495Y03241D01*
X04945Y03245D02*
X04947D01*
X04945Y03279D02*
X04989D01*
X0499Y03278*
X04945Y0328D02*
X04945Y03279D01*
X05005Y0296D02*
Y02961D01*
Y0296D02*
X05013Y02952D01*
X05014*
X05005Y02998D02*
Y02999D01*
X04961Y02956D02*
X05D01*
X0496Y02955D02*
X04961Y02956D01*
X05D02*
X05005Y02961D01*
X04956Y02996D02*
X05003D01*
X04955Y02995D02*
X04956Y02996D01*
X05003D02*
X05005Y02998D01*
X0442Y02916D02*
X04695D01*
X0442Y03018D02*
X04553D01*
X04555Y0302*
X04431Y02865D02*
X04435Y02861D01*
X04235Y02548D02*
Y0255D01*
X04159Y02507D02*
Y02522D01*
X04106Y0279D02*
Y0285D01*
X04145Y02889*
X04178*
X04179Y02891*
X04007Y0279D02*
X04106D01*
X04145Y0302D02*
X04178D01*
X04179Y03018*
X04095Y03071D02*
X04145Y0302D01*
X04095Y03071D02*
Y03165D01*
X0361Y0279D02*
X03711Y02891D01*
X03715Y02895D02*
X03976D01*
X03711Y02891D02*
D01*
X03715Y02895*
X0361Y0289D02*
Y029D01*
X03884Y03204D02*
X03974D01*
X04012Y03166*
Y03165D02*
Y03166D01*
G54D40*
X03615Y0252D03*
X05295Y0321D03*
X0361Y0279D03*
X053Y02935D03*
G54D41*
X03615Y0262D03*
X05295Y0331D03*
X0361Y0319D03*
Y0309D03*
Y0289D03*
Y0299D03*
X053Y03035D03*
G54D42*
X04445Y0245D03*
X03835Y03125D03*
X03825Y0275D03*
X0451Y02865D03*
X04548Y02968D03*
X04555Y0289D03*
X04575Y02945D03*
X0442Y03095D03*
X04235Y0264D03*
X04175Y03165D03*
X04805Y0309D03*
X0395Y0266D03*
X04955Y02995D03*
X0496Y02955D03*
X04945Y03245D03*
Y0328D03*
X04555Y0302D03*
X04256Y02998D03*
X043D03*
X04343D03*
X04256Y02955D03*
X043D03*
X04343D03*
X04256Y02911D03*
X043D03*
X04343D03*
M02*