%FSTAX23Y23*%
%MOIN*%
%SFA1B1*%

%IPPOS*%
%ADD10C,0.009843*%
%ADD11C,0.007874*%
%ADD12C,0.006500*%
%ADD13C,0.005000*%
%ADD14C,0.005905*%
%LNmtr_dvr_pcb_legend_top-1*%
%LPD*%
G36*
X04005Y02543D02*
X04016D01*
Y02551*
X04009Y02558*
X04005Y02543*
G37*
G36*
X04227Y03055D02*
D01*
X0426*
Y03041*
X0424Y03021*
X04227*
Y03055*
G37*
G54D10*
X03833Y02819D02*
D01*
X03833Y02819*
X03833Y0282*
X03833Y0282*
X03833Y0282*
X03833Y02821*
X03833Y02821*
X03833Y02821*
X03833Y02821*
X03832Y02822*
X03832Y02822*
X03832Y02822*
X03832Y02823*
X03831Y02823*
X03831Y02823*
X03831Y02823*
X03831Y02823*
X0383Y02823*
X0383Y02824*
X0383Y02824*
X03829Y02824*
X03829Y02824*
X03829Y02824*
X03828*
X03828Y02824*
X03828Y02824*
X03827Y02824*
X03827Y02824*
X03827Y02823*
X03826Y02823*
X03826Y02823*
X03826Y02823*
X03825Y02823*
X03825Y02823*
X03825Y02822*
X03825Y02822*
X03824Y02822*
X03824Y02821*
X03824Y02821*
X03824Y02821*
X03824Y02821*
X03824Y0282*
X03824Y0282*
X03823Y0282*
X03823Y02819*
X03823Y02819*
X03823Y02819*
X03823Y02818*
X03824Y02818*
X03824Y02818*
X03824Y02817*
X03824Y02817*
X03824Y02817*
X03824Y02816*
X03824Y02816*
X03825Y02816*
X03825Y02815*
X03825Y02815*
X03825Y02815*
X03826Y02815*
X03826Y02815*
X03826Y02814*
X03827Y02814*
X03827Y02814*
X03827Y02814*
X03828Y02814*
X03828Y02814*
X03828Y02814*
X03829*
X03829Y02814*
X03829Y02814*
X0383Y02814*
X0383Y02814*
X0383Y02814*
X03831Y02814*
X03831Y02815*
X03831Y02815*
X03831Y02815*
X03832Y02815*
X03832Y02815*
X03832Y02816*
X03832Y02816*
X03833Y02816*
X03833Y02817*
X03833Y02817*
X03833Y02817*
X03833Y02818*
X03833Y02818*
X03833Y02818*
X03833Y02819*
X03833Y02819*
X04008Y02518D02*
D01*
X04008Y02518*
X04008Y02518*
X04008Y02519*
X04008Y02519*
X04008Y02519*
X04007Y0252*
X04007Y0252*
X04007Y0252*
X04007Y0252*
X04007Y02521*
X04006Y02521*
X04006Y02521*
X04006Y02521*
X04006Y02522*
X04005Y02522*
X04005Y02522*
X04005Y02522*
X04004Y02522*
X04004Y02522*
X04004Y02522*
X04003Y02522*
X04003Y02522*
X04003*
X04002Y02522*
X04002Y02522*
X04002Y02522*
X04001Y02522*
X04001Y02522*
X04001Y02522*
X04Y02522*
X04Y02522*
X04Y02521*
X04Y02521*
X03999Y02521*
X03999Y02521*
X03999Y0252*
X03999Y0252*
X03999Y0252*
X03998Y0252*
X03998Y02519*
X03998Y02519*
X03998Y02519*
X03998Y02518*
X03998Y02518*
X03998Y02518*
X03998Y02517*
X03998Y02517*
X03998Y02516*
X03998Y02516*
X03998Y02516*
X03998Y02516*
X03999Y02515*
X03999Y02515*
X03999Y02515*
X03999Y02514*
X03999Y02514*
X04Y02514*
X04Y02514*
X04Y02513*
X04Y02513*
X04001Y02513*
X04001Y02513*
X04001Y02513*
X04002Y02513*
X04002Y02513*
X04002Y02513*
X04003Y02513*
X04003*
X04003Y02513*
X04004Y02513*
X04004Y02513*
X04004Y02513*
X04005Y02513*
X04005Y02513*
X04005Y02513*
X04006Y02513*
X04006Y02514*
X04006Y02514*
X04006Y02514*
X04007Y02514*
X04007Y02515*
X04007Y02515*
X04007Y02515*
X04007Y02516*
X04008Y02516*
X04008Y02516*
X04008Y02516*
X04008Y02517*
X04008Y02517*
X04008Y02518*
X05024Y02372D02*
D01*
X05024Y02372*
X05024Y02373*
X05024Y02373*
X05024Y02373*
X05024Y02374*
X05024Y02374*
X05024Y02374*
X05024Y02375*
X05023Y02375*
X05023Y02375*
X05023Y02375*
X05023Y02376*
X05023Y02376*
X05022Y02376*
X05022Y02376*
X05022Y02376*
X05021Y02377*
X05021Y02377*
X05021Y02377*
X0502Y02377*
X0502Y02377*
X0502Y02377*
X05019*
X05019Y02377*
X05019Y02377*
X05018Y02377*
X05018Y02377*
X05018Y02377*
X05017Y02376*
X05017Y02376*
X05017Y02376*
X05016Y02376*
X05016Y02376*
X05016Y02375*
X05016Y02375*
X05016Y02375*
X05015Y02375*
X05015Y02374*
X05015Y02374*
X05015Y02374*
X05015Y02373*
X05015Y02373*
X05015Y02373*
X05015Y02372*
X05015Y02372*
X05015Y02372*
X05015Y02371*
X05015Y02371*
X05015Y02371*
X05015Y0237*
X05015Y0237*
X05015Y0237*
X05015Y02369*
X05016Y02369*
X05016Y02369*
X05016Y02369*
X05016Y02368*
X05016Y02368*
X05017Y02368*
X05017Y02368*
X05017Y02368*
X05018Y02367*
X05018Y02367*
X05018Y02367*
X05019Y02367*
X05019Y02367*
X05019Y02367*
X0502*
X0502Y02367*
X0502Y02367*
X05021Y02367*
X05021Y02367*
X05021Y02367*
X05022Y02368*
X05022Y02368*
X05022Y02368*
X05023Y02368*
X05023Y02368*
X05023Y02369*
X05023Y02369*
X05023Y02369*
X05024Y02369*
X05024Y0237*
X05024Y0237*
X05024Y0237*
X05024Y02371*
X05024Y02371*
X05024Y02371*
X05024Y02372*
X05024Y02372*
X04669Y02367D02*
D01*
X04669Y02367*
X04669Y02368*
X04669Y02368*
X04669Y02368*
X04669Y02369*
X04669Y02369*
X04669Y02369*
X04669Y0237*
X04668Y0237*
X04668Y0237*
X04668Y0237*
X04668Y02371*
X04668Y02371*
X04667Y02371*
X04667Y02371*
X04667Y02371*
X04666Y02372*
X04666Y02372*
X04666Y02372*
X04665Y02372*
X04665Y02372*
X04665Y02372*
X04664*
X04664Y02372*
X04664Y02372*
X04663Y02372*
X04663Y02372*
X04663Y02372*
X04662Y02371*
X04662Y02371*
X04662Y02371*
X04661Y02371*
X04661Y02371*
X04661Y0237*
X04661Y0237*
X04661Y0237*
X0466Y0237*
X0466Y02369*
X0466Y02369*
X0466Y02369*
X0466Y02368*
X0466Y02368*
X0466Y02368*
X0466Y02367*
X0466Y02367*
X0466Y02367*
X0466Y02366*
X0466Y02366*
X0466Y02366*
X0466Y02365*
X0466Y02365*
X0466Y02365*
X0466Y02364*
X04661Y02364*
X04661Y02364*
X04661Y02364*
X04661Y02363*
X04661Y02363*
X04662Y02363*
X04662Y02363*
X04662Y02363*
X04663Y02362*
X04663Y02362*
X04663Y02362*
X04664Y02362*
X04664Y02362*
X04664Y02362*
X04665*
X04665Y02362*
X04665Y02362*
X04666Y02362*
X04666Y02362*
X04666Y02362*
X04667Y02363*
X04667Y02363*
X04667Y02363*
X04668Y02363*
X04668Y02363*
X04668Y02364*
X04668Y02364*
X04668Y02364*
X04669Y02364*
X04669Y02365*
X04669Y02365*
X04669Y02365*
X04669Y02366*
X04669Y02366*
X04669Y02366*
X04669Y02367*
X04669Y02367*
X03848Y03224D02*
D01*
X03848Y03224*
X03848Y03225*
X03848Y03225*
X03848Y03225*
X03848Y03226*
X03848Y03226*
X03848Y03226*
X03848Y03226*
X03847Y03227*
X03847Y03227*
X03847Y03227*
X03847Y03228*
X03846Y03228*
X03846Y03228*
X03846Y03228*
X03846Y03228*
X03845Y03228*
X03845Y03229*
X03845Y03229*
X03844Y03229*
X03844Y03229*
X03844Y03229*
X03843*
X03843Y03229*
X03843Y03229*
X03842Y03229*
X03842Y03229*
X03842Y03228*
X03841Y03228*
X03841Y03228*
X03841Y03228*
X0384Y03228*
X0384Y03228*
X0384Y03227*
X0384Y03227*
X03839Y03227*
X03839Y03226*
X03839Y03226*
X03839Y03226*
X03839Y03226*
X03839Y03225*
X03839Y03225*
X03838Y03225*
X03838Y03224*
X03838Y03224*
X03838Y03224*
X03838Y03223*
X03839Y03223*
X03839Y03223*
X03839Y03222*
X03839Y03222*
X03839Y03222*
X03839Y03221*
X03839Y03221*
X0384Y03221*
X0384Y0322*
X0384Y0322*
X0384Y0322*
X03841Y0322*
X03841Y0322*
X03841Y03219*
X03842Y03219*
X03842Y03219*
X03842Y03219*
X03843Y03219*
X03843Y03219*
X03843Y03219*
X03844*
X03844Y03219*
X03844Y03219*
X03845Y03219*
X03845Y03219*
X03845Y03219*
X03846Y03219*
X03846Y0322*
X03846Y0322*
X03846Y0322*
X03847Y0322*
X03847Y0322*
X03847Y03221*
X03847Y03221*
X03848Y03221*
X03848Y03222*
X03848Y03222*
X03848Y03222*
X03848Y03223*
X03848Y03223*
X03848Y03223*
X03848Y03224*
X03848Y03224*
X04184Y03075D02*
D01*
X04184Y03075*
X04184Y03075*
X04184Y03076*
X04184Y03076*
X04184Y03076*
X04184Y03077*
X04184Y03077*
X04184Y03077*
X04183Y03077*
X04183Y03078*
X04183Y03078*
X04183Y03078*
X04182Y03078*
X04182Y03079*
X04182Y03079*
X04182Y03079*
X04181Y03079*
X04181Y03079*
X04181Y03079*
X0418Y03079*
X0418Y03079*
X0418Y03079*
X04179*
X04179Y03079*
X04179Y03079*
X04178Y03079*
X04178Y03079*
X04178Y03079*
X04177Y03079*
X04177Y03079*
X04177Y03079*
X04176Y03078*
X04176Y03078*
X04176Y03078*
X04176Y03078*
X04175Y03077*
X04175Y03077*
X04175Y03077*
X04175Y03077*
X04175Y03076*
X04175Y03076*
X04175Y03076*
X04175Y03075*
X04175Y03075*
X04175Y03075*
X04175Y03074*
X04175Y03074*
X04175Y03074*
X04175Y03073*
X04175Y03073*
X04175Y03073*
X04175Y03072*
X04175Y03072*
X04175Y03072*
X04176Y03071*
X04176Y03071*
X04176Y03071*
X04176Y03071*
X04177Y0307*
X04177Y0307*
X04177Y0307*
X04178Y0307*
X04178Y0307*
X04178Y0307*
X04179Y0307*
X04179Y0307*
X04179Y0307*
X0418*
X0418Y0307*
X0418Y0307*
X04181Y0307*
X04181Y0307*
X04181Y0307*
X04182Y0307*
X04182Y0307*
X04182Y0307*
X04182Y03071*
X04183Y03071*
X04183Y03071*
X04183Y03071*
X04183Y03072*
X04184Y03072*
X04184Y03072*
X04184Y03073*
X04184Y03073*
X04184Y03073*
X04184Y03074*
X04184Y03074*
X04184Y03074*
X04184Y03075*
X03619Y02446D02*
D01*
X03619Y02446*
X03619Y02447*
X03619Y02447*
X03619Y02447*
X03619Y02448*
X03619Y02448*
X03619Y02448*
X03619Y02448*
X03618Y02449*
X03618Y02449*
X03618Y02449*
X03618Y0245*
X03618Y0245*
X03617Y0245*
X03617Y0245*
X03617Y0245*
X03616Y0245*
X03616Y02451*
X03616Y02451*
X03615Y02451*
X03615Y02451*
X03615Y02451*
X03614*
X03614Y02451*
X03614Y02451*
X03613Y02451*
X03613Y02451*
X03613Y0245*
X03612Y0245*
X03612Y0245*
X03612Y0245*
X03611Y0245*
X03611Y0245*
X03611Y02449*
X03611Y02449*
X03611Y02449*
X0361Y02448*
X0361Y02448*
X0361Y02448*
X0361Y02448*
X0361Y02447*
X0361Y02447*
X0361Y02447*
X0361Y02446*
X0361Y02446*
X0361Y02446*
X0361Y02445*
X0361Y02445*
X0361Y02445*
X0361Y02444*
X0361Y02444*
X0361Y02444*
X0361Y02443*
X03611Y02443*
X03611Y02443*
X03611Y02442*
X03611Y02442*
X03611Y02442*
X03612Y02442*
X03612Y02442*
X03612Y02441*
X03613Y02441*
X03613Y02441*
X03613Y02441*
X03614Y02441*
X03614Y02441*
X03614Y02441*
X03615*
X03615Y02441*
X03615Y02441*
X03616Y02441*
X03616Y02441*
X03616Y02441*
X03617Y02441*
X03617Y02442*
X03617Y02442*
X03618Y02442*
X03618Y02442*
X03618Y02442*
X03618Y02443*
X03618Y02443*
X03619Y02443*
X03619Y02444*
X03619Y02444*
X03619Y02444*
X03619Y02445*
X03619Y02445*
X03619Y02445*
X03619Y02446*
X03619Y02446*
X05299Y03136D02*
D01*
X05299Y03136*
X05299Y03137*
X05299Y03137*
X05299Y03137*
X05299Y03138*
X05299Y03138*
X05299Y03138*
X05299Y03138*
X05298Y03139*
X05298Y03139*
X05298Y03139*
X05298Y0314*
X05298Y0314*
X05297Y0314*
X05297Y0314*
X05297Y0314*
X05296Y0314*
X05296Y03141*
X05296Y03141*
X05295Y03141*
X05295Y03141*
X05295Y03141*
X05294*
X05294Y03141*
X05294Y03141*
X05293Y03141*
X05293Y03141*
X05293Y0314*
X05292Y0314*
X05292Y0314*
X05292Y0314*
X05291Y0314*
X05291Y0314*
X05291Y03139*
X05291Y03139*
X05291Y03139*
X0529Y03138*
X0529Y03138*
X0529Y03138*
X0529Y03138*
X0529Y03137*
X0529Y03137*
X0529Y03137*
X0529Y03136*
X0529Y03136*
X0529Y03136*
X0529Y03135*
X0529Y03135*
X0529Y03135*
X0529Y03134*
X0529Y03134*
X0529Y03134*
X0529Y03133*
X05291Y03133*
X05291Y03133*
X05291Y03132*
X05291Y03132*
X05291Y03132*
X05292Y03132*
X05292Y03132*
X05292Y03131*
X05293Y03131*
X05293Y03131*
X05293Y03131*
X05294Y03131*
X05294Y03131*
X05294Y03131*
X05295*
X05295Y03131*
X05295Y03131*
X05296Y03131*
X05296Y03131*
X05296Y03131*
X05297Y03131*
X05297Y03132*
X05297Y03132*
X05298Y03132*
X05298Y03132*
X05298Y03132*
X05298Y03133*
X05298Y03133*
X05299Y03133*
X05299Y03134*
X05299Y03134*
X05299Y03134*
X05299Y03135*
X05299Y03135*
X05299Y03135*
X05299Y03136*
X05299Y03136*
X03614Y02716D02*
D01*
X03614Y02716*
X03614Y02717*
X03614Y02717*
X03614Y02717*
X03614Y02718*
X03614Y02718*
X03614Y02718*
X03614Y02718*
X03613Y02719*
X03613Y02719*
X03613Y02719*
X03613Y0272*
X03613Y0272*
X03612Y0272*
X03612Y0272*
X03612Y0272*
X03611Y0272*
X03611Y02721*
X03611Y02721*
X0361Y02721*
X0361Y02721*
X0361Y02721*
X03609*
X03609Y02721*
X03609Y02721*
X03608Y02721*
X03608Y02721*
X03608Y0272*
X03607Y0272*
X03607Y0272*
X03607Y0272*
X03606Y0272*
X03606Y0272*
X03606Y02719*
X03606Y02719*
X03606Y02719*
X03605Y02718*
X03605Y02718*
X03605Y02718*
X03605Y02718*
X03605Y02717*
X03605Y02717*
X03605Y02717*
X03605Y02716*
X03605Y02716*
X03605Y02716*
X03605Y02715*
X03605Y02715*
X03605Y02715*
X03605Y02714*
X03605Y02714*
X03605Y02714*
X03605Y02713*
X03606Y02713*
X03606Y02713*
X03606Y02712*
X03606Y02712*
X03606Y02712*
X03607Y02712*
X03607Y02712*
X03607Y02711*
X03608Y02711*
X03608Y02711*
X03608Y02711*
X03609Y02711*
X03609Y02711*
X03609Y02711*
X0361*
X0361Y02711*
X0361Y02711*
X03611Y02711*
X03611Y02711*
X03611Y02711*
X03612Y02711*
X03612Y02712*
X03612Y02712*
X03613Y02712*
X03613Y02712*
X03613Y02712*
X03613Y02713*
X03613Y02713*
X03614Y02713*
X03614Y02714*
X03614Y02714*
X03614Y02714*
X03614Y02715*
X03614Y02715*
X03614Y02715*
X03614Y02716*
X03614Y02716*
X05304Y02861D02*
D01*
X05304Y02861*
X05304Y02862*
X05304Y02862*
X05304Y02862*
X05304Y02863*
X05304Y02863*
X05304Y02863*
X05304Y02863*
X05303Y02864*
X05303Y02864*
X05303Y02864*
X05303Y02865*
X05303Y02865*
X05302Y02865*
X05302Y02865*
X05302Y02865*
X05301Y02865*
X05301Y02866*
X05301Y02866*
X053Y02866*
X053Y02866*
X053Y02866*
X05299*
X05299Y02866*
X05299Y02866*
X05298Y02866*
X05298Y02866*
X05298Y02865*
X05297Y02865*
X05297Y02865*
X05297Y02865*
X05296Y02865*
X05296Y02865*
X05296Y02864*
X05296Y02864*
X05296Y02864*
X05295Y02863*
X05295Y02863*
X05295Y02863*
X05295Y02863*
X05295Y02862*
X05295Y02862*
X05295Y02862*
X05295Y02861*
X05295Y02861*
X05295Y02861*
X05295Y0286*
X05295Y0286*
X05295Y0286*
X05295Y02859*
X05295Y02859*
X05295Y02859*
X05295Y02858*
X05296Y02858*
X05296Y02858*
X05296Y02857*
X05296Y02857*
X05296Y02857*
X05297Y02857*
X05297Y02857*
X05297Y02856*
X05298Y02856*
X05298Y02856*
X05298Y02856*
X05299Y02856*
X05299Y02856*
X05299Y02856*
X053*
X053Y02856*
X053Y02856*
X05301Y02856*
X05301Y02856*
X05301Y02856*
X05302Y02856*
X05302Y02857*
X05302Y02857*
X05303Y02857*
X05303Y02857*
X05303Y02857*
X05303Y02858*
X05303Y02858*
X05304Y02858*
X05304Y02859*
X05304Y02859*
X05304Y02859*
X05304Y0286*
X05304Y0286*
X05304Y0286*
X05304Y02861*
X05304Y02861*
G54D11*
X04227Y03021D02*
D01*
X04229Y03022*
X04231Y03022*
X04234Y03022*
X04236Y03023*
X04238Y03023*
X0424Y03024*
X04242Y03025*
X04244Y03027*
X04246Y03028*
X04248Y03029*
X0425Y03031*
X04252Y03033*
X04253Y03034*
X04254Y03036*
X04256Y03038*
X04257Y0304*
X04258Y03042*
X04258Y03045*
X04259Y03047*
X0426Y03049*
X0426Y03051*
X0426Y03054*
X0426Y03055*
X03913Y02709D02*
X04004D01*
X04015Y0272*
Y02732*
Y02827D02*
Y02839D01*
X04004Y0285D02*
X04015Y02839D01*
X03913Y0285D02*
X04004D01*
X04005Y02637D02*
X04042D01*
X04149D02*
X04186D01*
Y02543D02*
Y02637D01*
X05083Y02427D02*
X05187D01*
X04852D02*
X04956D01*
X05187D02*
Y02722D01*
X04852Y02427D02*
Y02722D01*
X04892Y02762*
X05147D02*
X05187Y02722D01*
X05084Y02762D02*
X05147D01*
X04892D02*
X04955D01*
X04728Y02422D02*
X04832D01*
X04497D02*
X04601D01*
X04832D02*
Y02717D01*
X04497Y02422D02*
Y02717D01*
X04537Y02757*
X04792D02*
X04832Y02717D01*
X04729Y02757D02*
X04792D01*
X04537D02*
X046D01*
X03928Y03114D02*
X04019D01*
X0403Y03125*
Y03137*
Y03232D02*
Y03244D01*
X04019Y03255D02*
X0403Y03244D01*
X03928Y03255D02*
X04019D01*
X03916Y02527D02*
Y02622D01*
X03983Y02527D02*
Y02622D01*
X04206Y02535D02*
Y02601D01*
X04263Y02535D02*
Y02601D01*
X04383Y02818D02*
X04449D01*
X04383Y02761D02*
X04449D01*
X04227Y03055D02*
X04372D01*
X04227Y02854D02*
X04372D01*
X04227Y03021D02*
Y03055D01*
X03667Y02464D02*
Y02675D01*
X03562Y02464D02*
X03667D01*
X03562D02*
Y02675D01*
X03667*
X0473Y02953D02*
X04769D01*
X0473Y02886D02*
X04769D01*
X0473Y03048D02*
X04769D01*
X0473Y02981D02*
X04769D01*
X05347Y03154D02*
Y03365D01*
X05242Y03154D02*
X05347D01*
X05242D02*
Y03365D01*
X05347*
X05194Y03174D02*
Y03355D01*
X05085Y03174D02*
X05089D01*
X0519D02*
X05194D01*
X05085D02*
Y03355D01*
X05089*
X0519D02*
X05194D01*
X04961Y03227D02*
Y03292D01*
X05018Y03227D02*
Y03292D01*
X03662Y02734D02*
Y03245D01*
X03557Y02734D02*
X03662D01*
X03557D02*
Y03245D01*
X03662*
X05352Y02879D02*
Y0309D01*
X05247Y02879D02*
X05352D01*
X05247D02*
Y0309D01*
X05352*
X05194Y02884D02*
Y03065D01*
X05085Y02884D02*
X05089D01*
X0519D02*
X05194D01*
X05085D02*
Y03065D01*
X05089*
X0519D02*
X05194D01*
X04976Y02947D02*
Y03012D01*
X05033Y02947D02*
Y03012D01*
X03407Y0341D02*
X03414Y03417D01*
X03427*
X03434Y0341*
Y03404*
X03427Y03397*
X0342*
X03427*
X03434Y0339*
Y03384*
X03427Y03377*
X03414*
X03407Y03384*
X03447Y0341D02*
X03453Y03417D01*
X03466*
X03473Y0341*
Y03384*
X03466Y03377*
X03453*
X03447Y03384*
Y0341*
X03486Y03417D02*
Y0339D01*
X03499Y03377*
X03512Y0339*
Y03417*
X03565D02*
X03578D01*
X03571*
Y03377*
X03565*
X03578*
X03598D02*
Y03417D01*
X03624Y03377*
Y03417*
X03637Y03377D02*
Y03417D01*
X03657*
X03663Y0341*
Y03397*
X03657Y0339*
X03637*
X03676Y03417D02*
Y03384D01*
X03683Y03377*
X03696*
X03703Y03384*
Y03417*
X03716D02*
X03742D01*
X03729*
Y03377*
X03794Y03417D02*
Y03377D01*
X03814*
X03821Y03384*
Y0341*
X03814Y03417*
X03794*
X03834D02*
Y03384D01*
X0384Y03377*
X03853*
X0386Y03384*
Y03417*
X03873Y03377D02*
Y03404D01*
X03886Y03417*
X03899Y03404*
Y03377*
Y03397*
X03873*
X03912Y03417D02*
Y03377D01*
X03939*
X03991Y03417D02*
Y03377D01*
X04011*
X04017Y03384*
Y0341*
X04011Y03417*
X03991*
X04057Y0341D02*
X0405Y03417D01*
X04037*
X04031Y0341*
Y03384*
X04037Y03377*
X0405*
X04057Y03384*
X04109Y03377D02*
Y03417D01*
X04122Y03404*
X04135Y03417*
Y03377*
X04168Y03417D02*
X04155D01*
X04149Y0341*
Y03384*
X04155Y03377*
X04168*
X04175Y03384*
Y0341*
X04168Y03417*
X04188D02*
X04214D01*
X04201*
Y03377*
X04247Y03417D02*
X04234D01*
X04227Y0341*
Y03384*
X04234Y03377*
X04247*
X04254Y03384*
Y0341*
X04247Y03417*
X04267Y03377D02*
Y03417D01*
X04286*
X04293Y0341*
Y03397*
X04286Y0339*
X04267*
X0428D02*
X04293Y03377D01*
X04345Y03417D02*
Y03377D01*
X04365*
X04372Y03384*
Y0341*
X04365Y03417*
X04345*
X04385Y03377D02*
Y03417D01*
X04404*
X04411Y0341*
Y03397*
X04404Y0339*
X04385*
X04398D02*
X04411Y03377D01*
X04424Y03417D02*
X04437D01*
X04431*
Y03377*
X04424*
X04437*
X04457Y03417D02*
Y0339D01*
X0447Y03377*
X04483Y0339*
Y03417*
X04523D02*
X04496D01*
Y03377*
X04523*
X04496Y03397D02*
X04509D01*
X04536Y03377D02*
Y03417D01*
X04555*
X04562Y0341*
Y03397*
X04555Y0339*
X04536*
X04549D02*
X04562Y03377D01*
X04614Y03404D02*
X04627Y03377D01*
X04641Y03404*
X04654Y03377D02*
X04667D01*
X0466*
Y03417*
X04654Y0341*
X04686Y03377D02*
Y03384D01*
X04693*
Y03377*
X04686*
X04719D02*
X04732D01*
X04726*
Y03417*
X04719Y0341*
X03802Y03107D02*
X03762D01*
X03775Y0312*
X03762Y03134*
X03802*
X03762Y03147D02*
Y03173D01*
Y0316*
X03802*
Y03186D02*
X03762D01*
Y03206*
X03769Y03212*
X03782*
X03789Y03206*
Y03186*
Y03199D02*
X03802Y03212D01*
Y03252D02*
Y03225D01*
X03775Y03252*
X03769*
X03762Y03245*
Y03232*
X03769Y03225*
X03797Y02727D02*
X03757D01*
X0377Y0274*
X03757Y02754*
X03797*
X03757Y02767D02*
Y02793D01*
Y0278*
X03797*
Y02806D02*
X03757D01*
Y02826*
X03764Y02832*
X03777*
X03784Y02826*
Y02806*
Y02819D02*
X03797Y02832D01*
Y02845D02*
Y02859D01*
Y02852*
X03757*
X03764Y02845*
X05432Y03142D02*
X05392D01*
X05405Y03155*
X05392Y03169*
X05432*
X05392Y03201D02*
Y03188D01*
X05399Y03182*
X05425*
X05432Y03188*
Y03201*
X05425Y03208*
X05399*
X05392Y03201*
Y03221D02*
Y03247D01*
Y03234*
X05432*
X05392Y0328D02*
Y03267D01*
X05399Y0326*
X05425*
X05432Y03267*
Y0328*
X05425Y03287*
X05399*
X05392Y0328*
X05432Y033D02*
X05392D01*
Y03319*
X05399Y03326*
X05412*
X05419Y03319*
Y033*
Y03313D02*
X05432Y03326D01*
Y03405D02*
Y03379D01*
X05405Y03405*
X05399*
X05392Y03398*
Y03385*
X05399Y03379*
X05432Y02842D02*
X05392D01*
X05405Y02855*
X05392Y02869*
X05432*
X05392Y02901D02*
Y02888D01*
X05399Y02882*
X05425*
X05432Y02888*
Y02901*
X05425Y02908*
X05399*
X05392Y02901*
Y02921D02*
Y02947D01*
Y02934*
X05432*
X05392Y0298D02*
Y02967D01*
X05399Y0296*
X05425*
X05432Y02967*
Y0298*
X05425Y02987*
X05399*
X05392Y0298*
X05432Y03D02*
X05392D01*
Y03019*
X05399Y03026*
X05412*
X05419Y03019*
Y03*
Y03013D02*
X05432Y03026D01*
Y03079D02*
Y03092D01*
Y03085*
X05392*
X05399Y03079*
X03454Y03215D02*
X03447Y03222D01*
X03434*
X03427Y03215*
Y03189*
X03434Y03182*
X03447*
X03454Y03189*
Y03202*
X0344*
X03467Y03182D02*
Y03222D01*
X03493Y03182*
Y03222*
X03506D02*
Y03182D01*
X03526*
X03532Y03189*
Y03215*
X03526Y03222*
X03506*
X03427Y03122D02*
X0344D01*
X03434*
Y03082*
X03427*
X0344*
X0346D02*
Y03122D01*
X03486Y03082*
Y03122*
X03519Y03082D02*
Y03122D01*
X035Y03102*
X03526*
X03427Y03022D02*
X0344D01*
X03434*
Y02982*
X03427*
X0344*
X0346D02*
Y03022D01*
X03486Y02982*
Y03022*
X035Y03015D02*
X03506Y03022D01*
X03519*
X03526Y03015*
Y03009*
X03519Y03002*
X03513*
X03519*
X03526Y02995*
Y02989*
X03519Y02982*
X03506*
X035Y02989*
X03432Y02922D02*
X03445D01*
X03439*
Y02882*
X03432*
X03445*
X03465D02*
Y02922D01*
X03491Y02882*
Y02922*
X03531Y02882D02*
X03505D01*
X03531Y02909*
Y02915*
X03524Y02922*
X03511*
X03505Y02915*
X03437Y02822D02*
X0345D01*
X03444*
Y02782*
X03437*
X0345*
X0347D02*
Y02822D01*
X03496Y02782*
Y02822*
X0351Y02782D02*
X03523D01*
X03516*
Y02822*
X0351Y02815*
X03449Y0263D02*
X03442Y02637D01*
X03429*
X03422Y0263*
Y02604*
X03429Y02597*
X03442*
X03449Y02604*
Y02617*
X03435*
X03462Y02597D02*
Y02637D01*
X03488Y02597*
Y02637*
X03501D02*
Y02597D01*
X03521*
X03527Y02604*
Y0263*
X03521Y02637*
X03501*
X03422Y02527D02*
Y025D01*
X03435Y02487*
X03449Y025*
Y02527*
X03488Y0252D02*
X03481Y02527D01*
X03468*
X03462Y0252*
Y02494*
X03468Y02487*
X03481*
X03488Y02494*
X03527Y0252D02*
X03521Y02527D01*
X03508*
X03501Y0252*
Y02494*
X03508Y02487*
X03521*
X03527Y02494*
X04068Y02739D02*
Y02706D01*
X04075Y027*
X04088*
X04095Y02706*
Y02739*
X04108Y027D02*
X04121D01*
X04114*
Y02739*
X04108Y02733*
X04908Y02818D02*
X04901Y02824D01*
X04888*
X04882Y02818*
Y02791*
X04888Y02785*
X04901*
X04908Y02791*
X04921Y02818D02*
X04928Y02824D01*
X04941*
X04947Y02818*
Y02811*
X04941Y02805*
X04934*
X04941*
X04947Y02798*
Y02791*
X04941Y02785*
X04928*
X04921Y02791*
X04763Y02813D02*
X04756Y02819D01*
X04743*
X04737Y02813*
Y02786*
X04743Y0278*
X04756*
X04763Y02786*
X04802Y0278D02*
X04776D01*
X04802Y02806*
Y02813*
X04796Y02819*
X04783*
X04776Y02813*
X04232Y03119D02*
Y03086D01*
X04238Y0308*
X04251*
X04258Y03086*
Y03119*
X04297Y0308D02*
X04271D01*
X04297Y03106*
Y03113*
X04291Y03119*
X04278*
X04271Y03113*
X04535Y02995D02*
Y03034D01*
X04555*
X04562Y03028*
Y03015*
X04555Y03008*
X04535*
X04548D02*
X04562Y02995D01*
X04575D02*
X04588D01*
X04581*
Y03034*
X04575Y03028*
X04607D02*
X04614Y03034D01*
X04627*
X04634Y03028*
Y03001*
X04627Y02995*
X04614*
X04607Y03001*
Y03028*
X04557Y02895D02*
Y02934D01*
X04576*
X04583Y02928*
Y02915*
X04576Y02908*
X04557*
X0457D02*
X04583Y02895D01*
X04596Y02901D02*
X04603Y02895D01*
X04616*
X04622Y02901*
Y02928*
X04616Y02934*
X04603*
X04596Y02928*
Y02921*
X04603Y02915*
X04622*
X04077Y032D02*
Y03239D01*
X04096*
X04103Y03233*
Y0322*
X04096Y03213*
X04077*
X0409D02*
X04103Y032D01*
X04142Y03239D02*
X04129Y03233D01*
X04116Y0322*
Y03206*
X04123Y032*
X04136*
X04142Y03206*
Y03213*
X04136Y0322*
X04116*
X04182Y02765D02*
Y02804D01*
X04201*
X04208Y02798*
Y02785*
X04201Y02778*
X04182*
X04195D02*
X04208Y02765D01*
X04247Y02804D02*
X04221D01*
Y02785*
X04234Y02791*
X04241*
X04247Y02785*
Y02771*
X04241Y02765*
X04228*
X04221Y02771*
X03882Y03285D02*
Y03324D01*
X03901*
X03908Y03318*
Y03305*
X03901Y03298*
X03882*
X03895D02*
X03908Y03285D01*
X03947D02*
X03921D01*
X03947Y03311*
Y03318*
X03941Y03324*
X03928*
X03921Y03318*
X03788Y0265D02*
Y02689D01*
X03808*
X03815Y02683*
Y0267*
X03808Y02663*
X03788*
X03801D02*
X03815Y0265D01*
X03828D02*
X03841D01*
X03834*
Y02689*
X03828Y02683*
X05112Y02819D02*
Y0278D01*
X05131*
X05138Y02786*
Y02813*
X05131Y02819*
X05112*
X05177Y0278D02*
X05151D01*
X05177Y02806*
Y02813*
X05171Y02819*
X05158*
X05151Y02813*
X05038Y03414D02*
Y03375D01*
X05058*
X05065Y03381*
Y03408*
X05058Y03414*
X05038*
X05078Y03375D02*
X05091D01*
X05084*
Y03414*
X05078Y03408*
X04978Y03068D02*
X04971Y03074D01*
X04958*
X04952Y03068*
Y03041*
X04958Y03035*
X04971*
X04978Y03041*
X04991Y03074D02*
X05017D01*
Y03068*
X04991Y03041*
Y03035*
X04953Y03348D02*
X04946Y03354D01*
X04933*
X04927Y03348*
Y03321*
X04933Y03315*
X04946*
X04953Y03321*
X04992Y03354D02*
X04979Y03348D01*
X04966Y03335*
Y03321*
X04973Y03315*
X04986*
X04992Y03321*
Y03328*
X04986Y03335*
X04966*
X03858Y02543D02*
X03851Y02549D01*
X03838*
X03832Y02543*
Y02516*
X03838Y0251*
X03851*
X03858Y02516*
X03897Y02549D02*
X03871D01*
Y0253*
X03884Y02536*
X03891*
X03897Y0253*
Y02516*
X03891Y0251*
X03878*
X03871Y02516*
X04308Y02533D02*
X04301Y02539D01*
X04288*
X04282Y02533*
Y02506*
X04288Y025*
X04301*
X04308Y02506*
X04341Y025D02*
Y02539D01*
X04321Y0252*
X04347*
X04385Y02728D02*
X04378Y02734D01*
X04365*
X04358Y02728*
Y02701*
X04365Y02695*
X04378*
X04385Y02701*
X04398Y02695D02*
X04411D01*
X04404*
Y02734*
X04398Y02728*
G54D12*
X04005Y02543D02*
Y02637D01*
G54D13*
X04005Y02543D02*
X04016D01*
Y02551*
X04009Y02558D02*
X04016Y02551D01*
G54D14*
X03847Y0299D02*
Y03029D01*
X03866*
X03873Y03023*
Y0301*
X03866Y03003*
X03847*
X0386D02*
X03873Y0299D01*
X03886Y03023D02*
X03893Y03029D01*
X03906*
X03912Y03023*
Y03016*
X03906Y0301*
X03912Y03003*
Y02996*
X03906Y0299*
X03893*
X03886Y02996*
Y03003*
X03893Y0301*
X03886Y03016*
Y03023*
X03893Y0301D02*
X03906D01*
X03847Y0306D02*
Y03099D01*
X03866*
X03873Y03093*
Y0308*
X03866Y03073*
X03847*
X0386D02*
X03873Y0306D01*
X03886Y03099D02*
X03912D01*
Y03093*
X03886Y03066*
Y0306*
X03845Y02935D02*
Y02974D01*
X03865*
X03872Y02968*
Y02955*
X03865Y02948*
X03845*
X03859D02*
X03872Y02935D01*
X03904D02*
Y02974D01*
X03885Y02955*
X03911*
X03847Y0287D02*
Y02909D01*
X03866*
X03873Y02903*
Y0289*
X03866Y02883*
X03847*
X0386D02*
X03873Y0287D01*
X03886Y02903D02*
X03893Y02909D01*
X03906*
X03912Y02903*
Y02896*
X03906Y0289*
X03899*
X03906*
X03912Y02883*
Y02876*
X03906Y0287*
X03893*
X03886Y02876*
M02*