%FSTAX23Y23*%
%MOIN*%
%SFA1B1*%

%IPPOS*%
%AMD40*
4,1,8,-0.031500,0.015700,-0.031500,-0.015700,-0.015700,-0.031500,0.015700,-0.031500,0.031500,-0.015700,0.031500,0.015700,0.015700,0.031500,-0.015700,0.031500,-0.031500,0.015700,0.0*
1,1,0.031496,-0.015700,0.015700*
1,1,0.031496,-0.015700,-0.015700*
1,1,0.031496,0.015700,-0.015700*
1,1,0.031496,0.015700,0.015700*
%
%ADD38C,0.011811*%
%ADD39C,0.010000*%
G04~CAMADD=40~8~0.0~0.0~629.9~629.9~157.5~0.0~15~0.0~0.0~0.0~0.0~0~0.0~0.0~0.0~0.0~0~0.0~0.0~0.0~90.0~630.0~630.0*
%ADD40D40*%
%ADD41C,0.062992*%
%ADD42C,0.019685*%
%LNmtr_dvr_pcb_copper_signal_bot-1*%
%LPD*%
G36*
X0549Y0231D02*
X03355D01*
Y03465*
X0549*
Y0231*
G37*
%LNmtr_dvr_pcb_copper_signal_bot-2*%
%LPC*%
G36*
X053Y03351D02*
X05289D01*
X05278Y03348*
X05269Y03343*
X05261Y03335*
X05256Y03326*
X05253Y03315*
Y03304*
X05256Y03293*
X05261Y03284*
X05269Y03276*
X05278Y03271*
X05289Y03268*
X053*
X05311Y03271*
X0532Y03276*
X05328Y03284*
X05333Y03293*
X05336Y03304*
Y03315*
X05333Y03326*
X05328Y03335*
X0532Y03343*
X05311Y03348*
X053Y03351*
G37*
G36*
X04948Y03299D02*
X04941D01*
X04933Y03296*
X04932Y03295*
X04815*
X04809Y03294*
X04804Y0329*
X04553Y03039*
X04551*
X04543Y03036*
X04538Y03031*
X04535Y03023*
Y03016*
X04538Y03008*
X04543Y03003*
X04551Y03*
X04558*
X04566Y03003*
X04571Y03008*
X04574Y03016*
Y03018*
X04821Y03264*
X04836*
X04837Y03259*
X04834Y03259*
X04829Y03255*
X04559Y02985*
X04552Y02988*
X04544*
X04537Y02985*
X04532Y02979*
X0453Y02975*
X04525Y02976*
Y03035*
X04524Y0304*
X0452Y03045*
X0446Y03105*
X04455Y03109*
X0445Y0311*
X04432*
X04431Y03111*
X04423Y03114*
X04416*
X04408Y03111*
X04403Y03106*
X044Y03098*
Y03091*
X04403Y03083*
X04408Y03078*
X04416Y03075*
X04423*
X04431Y03078*
X04432Y03079*
X04443*
X04494Y03028*
Y02877*
X04493Y02876*
X0449Y02868*
Y02861*
X04493Y02853*
X04498Y02848*
X04506Y02845*
X04513*
X04521Y02848*
X04526Y02853*
X04529Y02861*
Y02868*
X04526Y02876*
X04525Y02877*
Y0296*
X0453Y02961*
X04532Y02957*
X04537Y02951*
X04544Y02948*
X04552*
X04555Y02944*
Y02941*
X04558Y02933*
X04563Y02928*
X04571Y02925*
X04578*
X04586Y02928*
X04587Y02929*
X04905*
X0491Y0293*
X04915Y02934*
X04935Y02953*
X04939Y02951*
X0494Y02947*
X04898Y02905*
X04567*
X04566Y02906*
X04558Y02909*
X04551*
X04543Y02906*
X04538Y02901*
X04535Y02893*
Y02886*
X04538Y02878*
X04543Y02873*
X04551Y0287*
X04558*
X04566Y02873*
X04567Y02874*
X04905*
X0491Y02875*
X04915Y02879*
X04968Y02932*
X04972Y02937*
X04972Y02939*
X04976Y02943*
X04979Y02951*
Y02958*
X04976Y02966*
X04971Y02971*
X04967Y02973*
X04967Y02975*
X04967Y02978*
X04971Y02983*
X04974Y02991*
Y02998*
X04971Y03006*
X04966Y03011*
X04958Y03014*
X04951*
X04943Y03011*
X04938Y03006*
X04935Y02998*
Y02996*
X04898Y0296*
X04587*
X04586Y02961*
X04584Y02962*
X04583Y02967*
X04846Y03229*
X04932*
X04933Y03228*
X04941Y03225*
X04948*
X04956Y03228*
X04961Y03233*
X04964Y03241*
Y03248*
X04961Y03256*
X04958Y03259*
X04956Y03262*
X04958Y03265*
X04961Y03268*
X04964Y03276*
Y03283*
X04961Y03291*
X04956Y03296*
X04948Y03299*
G37*
G36*
X03615Y03231D02*
X03615D01*
Y03195*
X03651*
Y03195*
X03648Y03206*
X03643Y03215*
X03635Y03223*
X03626Y03228*
X03615Y03231*
G37*
G36*
X03605D02*
X03604D01*
X03593Y03228*
X03584Y03223*
X03576Y03215*
X03571Y03206*
X03568Y03195*
Y03195*
X03605*
Y03231*
G37*
G36*
X0418Y03184D02*
Y0317D01*
X04194*
X04191Y03176*
X04186Y03181*
X0418Y03184*
G37*
G36*
X0417D02*
X04163Y03181D01*
X04158Y03176*
X04155Y0317*
X0417*
Y03184*
G37*
G36*
X0531Y03251D02*
X05279D01*
X05272Y0325*
X05266Y03248*
X0526Y03244*
X05256Y03238*
X05254Y03232*
X05253Y03225*
Y03194*
X05254Y03187*
X05256Y03181*
X0526Y03175*
X05266Y03171*
X05272Y03169*
X05279Y03168*
X0531*
X05317Y03169*
X05323Y03171*
X05329Y03175*
X05333Y03181*
X05335Y03187*
X05336Y03194*
Y03225*
X05335Y03232*
X05333Y03238*
X05329Y03244*
X05323Y03248*
X05317Y0325*
X0531Y03251*
G37*
G36*
X03651Y03185D02*
X03615D01*
Y03148*
X03615*
X03626Y03151*
X03635Y03156*
X03643Y03164*
X03648Y03173*
X03651Y03184*
Y03185*
G37*
G36*
X03605D02*
X03568D01*
Y03184*
X03571Y03173*
X03576Y03164*
X03584Y03156*
X03593Y03151*
X03604Y03148*
X03605*
Y03185*
G37*
G36*
X04194Y0316D02*
X0418D01*
Y03145*
X04186Y03148*
X04191Y03153*
X04194Y0316*
G37*
G36*
X0417D02*
X04155D01*
X04158Y03153*
X04163Y03148*
X0417Y03145*
Y0316*
G37*
G36*
X0481Y03109D02*
Y03095D01*
X04824*
X04821Y03101*
X04816Y03106*
X0481Y03109*
G37*
G36*
X048D02*
X04793Y03106D01*
X04788Y03101*
X04785Y03095*
X048*
Y03109*
G37*
G36*
X04824Y03085D02*
X0481D01*
Y0307*
X04816Y03073*
X04821Y03078*
X04824Y03085*
G37*
G36*
X048D02*
X04785D01*
X04788Y03078*
X04793Y03073*
X048Y0307*
Y03085*
G37*
G36*
X03615Y03131D02*
X03604D01*
X03593Y03128*
X03584Y03123*
X03576Y03115*
X03571Y03106*
X03568Y03095*
Y03084*
X03571Y03073*
X03576Y03064*
X03584Y03056*
X03593Y03051*
X03604Y03048*
X03615*
X03626Y03051*
X03635Y03056*
X03643Y03064*
X03648Y03073*
X03651Y03084*
Y03095*
X03648Y03106*
X03643Y03115*
X03635Y03123*
X03626Y03128*
X03615Y03131*
G37*
G36*
X04338Y03017D02*
X04332Y03015D01*
X04326Y03009*
X04324Y03004*
X04318*
X04316Y03009*
X04311Y03015*
X04305Y03017*
Y02998*
X04295*
Y03017*
X04288Y03015*
X04283Y03009*
X04281Y03004*
X04275*
X04273Y03009*
X04267Y03015*
X04261Y03017*
Y02998*
X04256*
Y02993*
X04237*
X04239Y02987*
X04245Y02981*
X0425Y02979*
Y02973*
X04245Y02971*
X04239Y02966*
X04237Y0296*
X04256*
Y0295*
X04237*
X04239Y02943*
X04245Y02938*
X0425Y02936*
Y0293*
X04245Y02928*
X04239Y02922*
X04237Y02916*
X04256*
Y02911*
X04261*
Y02892*
X04267Y02894*
X04273Y029*
X04275Y02905*
X04281*
X04283Y029*
X04288Y02894*
X04295Y02892*
Y02911*
X04305*
Y02892*
X04311Y02894*
X04316Y029*
X04318Y02905*
X04324*
X04326Y029*
X04332Y02894*
X04338Y02892*
Y02911*
X04343*
Y02916*
X04362*
X0436Y02922*
X04354Y02928*
X04349Y0293*
Y02936*
X04354Y02938*
X0436Y02943*
X04362Y0295*
X04343*
Y0296*
X04362*
X0436Y02966*
X04354Y02971*
X04349Y02973*
Y02979*
X04354Y02981*
X0436Y02987*
X04362Y02993*
X04343*
Y02998*
X04338*
Y03017*
G37*
G36*
X04348D02*
Y03003D01*
X04362*
X0436Y03009*
X04354Y03015*
X04348Y03017*
G37*
G36*
X04251D02*
X04245Y03015D01*
X04239Y03009*
X04237Y03003*
X04251*
Y03017*
G37*
G36*
X05305Y03076D02*
X05294D01*
X05283Y03073*
X05274Y03068*
X05266Y0306*
X05261Y03051*
X05258Y0304*
Y03029*
X05261Y03018*
X05266Y03009*
X05274Y03001*
X05283Y02996*
X05294Y02993*
X05305*
X05316Y02996*
X05325Y03001*
X05333Y03009*
X05338Y03018*
X05341Y03029*
Y0304*
X05338Y03051*
X05333Y0306*
X05325Y03068*
X05316Y03073*
X05305Y03076*
G37*
G36*
X03615Y03031D02*
X03604D01*
X03593Y03028*
X03584Y03023*
X03576Y03015*
X03571Y03006*
X03568Y02995*
Y02984*
X03571Y02973*
X03576Y02964*
X03584Y02956*
X03593Y02951*
X03604Y02948*
X03615*
X03626Y02951*
X03635Y02956*
X03643Y02964*
X03648Y02973*
X03651Y02984*
Y02995*
X03648Y03006*
X03643Y03015*
X03635Y03023*
X03626Y03028*
X03615Y03031*
G37*
G36*
X05315Y02976D02*
X05284D01*
X05277Y02975*
X05271Y02973*
X05265Y02969*
X05261Y02963*
X05259Y02957*
X05258Y0295*
Y02919*
X05259Y02912*
X05261Y02906*
X05265Y029*
X05271Y02896*
X05277Y02894*
X05284Y02893*
X05315*
X05322Y02894*
X05328Y02896*
X05334Y029*
X05338Y02906*
X0534Y02912*
X05341Y02919*
Y0295*
X0534Y02957*
X05338Y02963*
X05334Y02969*
X05328Y02973*
X05322Y02975*
X05315Y02976*
G37*
G36*
X04362Y02906D02*
X04348D01*
Y02892*
X04354Y02894*
X0436Y029*
X04362Y02906*
G37*
G36*
X04251D02*
X04237D01*
X04239Y029*
X04245Y02894*
X04251Y02892*
Y02906*
G37*
G36*
X03615Y02931D02*
X03604D01*
X03593Y02928*
X03584Y02923*
X03576Y02915*
X03571Y02906*
X03568Y02895*
Y02884*
X03571Y02873*
X03576Y02864*
X03584Y02856*
X03593Y02851*
X03604Y02848*
X03615*
X03626Y02851*
X03635Y02856*
X03643Y02864*
X03648Y02873*
X03651Y02884*
Y02895*
X03648Y02906*
X03643Y02915*
X03635Y02923*
X03626Y02928*
X03615Y02931*
G37*
G36*
X03625Y02831D02*
X03594D01*
X03587Y0283*
X03581Y02828*
X03575Y02824*
X03571Y02818*
X03569Y02812*
X03568Y02805*
Y02774*
X03569Y02767*
X03571Y02761*
X03575Y02755*
X03581Y02751*
X03587Y02749*
X03594Y02748*
X03625*
X03632Y02749*
X03638Y02751*
X03644Y02755*
X03648Y02761*
X0365Y02767*
X03651Y02774*
Y02805*
X0365Y02812*
X03648Y02818*
X03644Y02824*
X03638Y02828*
X03632Y0283*
X03625Y02831*
G37*
G36*
X03838Y03144D02*
X03831D01*
X03823Y03141*
X03818Y03136*
X03815Y03128*
Y03124*
X03813Y03123*
X0381Y03118*
X03808Y03112*
Y02761*
X03808Y02761*
X03805Y02753*
Y02746*
X03808Y02738*
X03813Y02733*
X03821Y0273*
X03828*
X03836Y02733*
X03841Y02738*
X03844Y02746*
Y02753*
X03841Y02761*
X03841Y02761*
Y03106*
X03846Y03108*
X03851Y03113*
X03854Y03121*
Y03128*
X03851Y03136*
X03846Y03141*
X03838Y03144*
G37*
G36*
X03955Y02679D02*
Y02665D01*
X03969*
X03966Y02671*
X03961Y02676*
X03955Y02679*
G37*
G36*
X03945D02*
X03938Y02676D01*
X03933Y02671*
X0393Y02665*
X03945*
Y02679*
G37*
G36*
X0424Y02659D02*
Y02645D01*
X04254*
X04251Y02651*
X04246Y02656*
X0424Y02659*
G37*
G36*
X0423D02*
X04223Y02656D01*
X04218Y02651*
X04215Y02645*
X0423*
Y02659*
G37*
G36*
X03969Y02655D02*
X03955D01*
Y0264*
X03961Y02643*
X03966Y02648*
X03969Y02655*
G37*
G36*
X03945D02*
X0393D01*
X03933Y02648*
X03938Y02643*
X03945Y0264*
Y02655*
G37*
G36*
X0362Y02661D02*
X0362D01*
Y02625*
X03656*
Y02625*
X03653Y02636*
X03648Y02645*
X0364Y02653*
X03631Y02658*
X0362Y02661*
G37*
G36*
X0361D02*
X03609D01*
X03598Y02658*
X03589Y02653*
X03581Y02645*
X03576Y02636*
X03573Y02625*
Y02625*
X0361*
Y02661*
G37*
G36*
X04254Y02635D02*
X0424D01*
Y0262*
X04246Y02623*
X04251Y02628*
X04254Y02635*
G37*
G36*
X0423D02*
X04215D01*
X04218Y02628*
X04223Y02623*
X0423Y0262*
Y02635*
G37*
G36*
X03656Y02615D02*
X0362D01*
Y02578*
X0362*
X03631Y02581*
X0364Y02586*
X03648Y02594*
X03653Y02603*
X03656Y02614*
Y02615*
G37*
G36*
X0361D02*
X03573D01*
Y02614*
X03576Y02603*
X03581Y02594*
X03589Y02586*
X03598Y02581*
X03609Y02578*
X0361*
Y02615*
G37*
G36*
X0363Y02561D02*
X03599D01*
X03592Y0256*
X03586Y02558*
X0358Y02554*
X03576Y02548*
X03574Y02542*
X03573Y02535*
Y02504*
X03574Y02497*
X03576Y02491*
X0358Y02485*
X03586Y02481*
X03592Y02479*
X03599Y02478*
X0363*
X03637Y02479*
X03643Y02481*
X03649Y02485*
X03653Y02491*
X03655Y02497*
X03656Y02504*
Y02535*
X03655Y02542*
X03653Y02548*
X03649Y02554*
X03643Y02558*
X03637Y0256*
X0363Y02561*
G37*
G36*
X0445Y02469D02*
Y02455D01*
X04464*
X04461Y02461*
X04456Y02466*
X0445Y02469*
G37*
G36*
X0444D02*
X04433Y02466D01*
X04428Y02461*
X04425Y02455*
X0444*
Y02469*
G37*
G36*
X04464Y02445D02*
X0445D01*
Y0243*
X04456Y02433*
X04461Y02438*
X04464Y02445*
G37*
G36*
X0444D02*
X04425D01*
X04428Y02438*
X04433Y02433*
X0444Y0243*
Y02445*
G37*
%LNmtr_dvr_pcb_copper_signal_bot-3*%
%LPD*%
G54D38*
X03825Y0275D02*
Y03112D01*
G54D39*
X043Y02911D02*
Y02955D01*
X03825Y03112D02*
X03835Y03122D01*
Y03125*
X0445Y03095D02*
X0451Y03035D01*
Y02865D02*
Y03035D01*
X0442Y03095D02*
X0445D01*
X0455Y02969D02*
X04564D01*
X04548Y02968D02*
X0455Y02969D01*
X04564D02*
X0484Y03245D01*
X04575Y02945D02*
X04905D01*
X04555Y0289D02*
X04905D01*
X04958Y02943*
Y02953D02*
X0496Y02955D01*
X04958Y02943D02*
Y02953D01*
X04905Y02945D02*
X04955Y02995D01*
X0484Y03245D02*
X04945D01*
X04815Y0328D02*
X04945D01*
X04555Y0302D02*
X04815Y0328D01*
G54D40*
X03615Y0252D03*
X05295Y0321D03*
X0361Y0279D03*
X053Y02935D03*
G54D41*
X03615Y0262D03*
X05295Y0331D03*
X0361Y0319D03*
Y0309D03*
Y0289D03*
Y0299D03*
X053Y03035D03*
G54D42*
X04445Y0245D03*
X03835Y03125D03*
X03825Y0275D03*
X0451Y02865D03*
X04548Y02968D03*
X04555Y0289D03*
X04575Y02945D03*
X0442Y03095D03*
X04235Y0264D03*
X04175Y03165D03*
X04805Y0309D03*
X0395Y0266D03*
X04955Y02995D03*
X0496Y02955D03*
X04945Y03245D03*
Y0328D03*
X04555Y0302D03*
X04256Y02998D03*
X043D03*
X04343D03*
X04256Y02955D03*
X043D03*
X04343D03*
X04256Y02911D03*
X043D03*
X04343D03*
M02*