%FSTAX23Y23*%
%MOIN*%
%SFA1B1*%

%IPPOS*%
%ADD11C,0.007874*%
%ADD43C,0.003937*%
%ADD44C,0.001969*%
%LNmtr_dvr_pcb_top_courtyard-1*%
%LPD*%
G54D11*
X04842Y02388D02*
Y02801D01*
X05197*
Y02388D02*
Y02801D01*
X04842Y02388D02*
X05197D01*
X04487Y02383D02*
Y02796D01*
X04842*
Y02383D02*
Y02796D01*
X04487Y02383D02*
X04842D01*
X03977Y02517D02*
Y02632D01*
X03922Y02517D02*
X03977D01*
X03922D02*
Y02632D01*
X03977*
X04256Y02527D02*
Y02609D01*
X04213Y02527D02*
X04256D01*
X04213D02*
Y02609D01*
X04256*
X04375Y02768D02*
Y02811D01*
Y02768D02*
X04456D01*
Y02811*
X04375D02*
X04456D01*
X04663Y02876D02*
Y02963D01*
Y02876D02*
X04836D01*
Y02963*
X04663D02*
X04836D01*
X04663Y02971D02*
Y03058D01*
Y02971D02*
X04836D01*
Y03058*
X04663D02*
X04836D01*
X05198Y03133D02*
Y03396D01*
X05081Y03133D02*
X05198D01*
X05081D02*
Y03396D01*
X05198*
X05011Y03219D02*
Y033D01*
X04968Y03219D02*
X05011D01*
X04968D02*
Y033D01*
X05011*
X05198Y02843D02*
Y03106D01*
X05081Y02843D02*
X05198D01*
X05081D02*
Y03106D01*
X05198*
X05026Y02939D02*
Y0302D01*
X04983Y02939D02*
X05026D01*
X04983D02*
Y0302D01*
X05026*
G54D43*
X03925Y0278D02*
X03964D01*
X03945Y0276D02*
Y02799D01*
X04095Y02575D02*
Y02614D01*
X04076Y02594D02*
X04115D01*
X0394Y03185D02*
X03979D01*
X0396Y03165D02*
Y03204D01*
X0428Y02955D02*
X04319D01*
X043Y02935D02*
Y02974D01*
X03984Y02895D02*
X04005D01*
X03995Y02884D02*
Y02905D01*
X03979Y02955D02*
X04D01*
X0399Y02944D02*
Y02965D01*
X04113Y03154D02*
Y03175D01*
X04102Y03165D02*
X04124D01*
X04125Y02779D02*
Y028D01*
X04114Y0279D02*
X04135D01*
X03979Y0307D02*
X04D01*
X0399Y03059D02*
Y0308D01*
X03984Y03005D02*
X04005D01*
X03995Y02994D02*
Y03015D01*
G54D44*
X03846Y02854D02*
X04035D01*
X03846Y02705D02*
Y02854D01*
Y02705D02*
X04035D01*
Y02854*
X03995Y02485D02*
X04196D01*
X03995Y0267D02*
X04196D01*
X03995Y02485D02*
Y0267D01*
X04196Y02485D02*
Y0267D01*
X03861Y03259D02*
X0405D01*
X03861Y0311D02*
Y03259D01*
Y0311D02*
X0405D01*
Y03259*
X04146Y02844D02*
Y03065D01*
X04453Y02844D02*
Y03065D01*
X04146D02*
X04453D01*
X04146Y02844D02*
X04453D01*
X03953Y02873D02*
Y02916D01*
X04036Y02873D02*
Y02916D01*
X03953D02*
X04036D01*
X03953Y02873D02*
X04036D01*
X03948Y02933D02*
Y02976D01*
X04031Y02933D02*
Y02976D01*
X03948D02*
X04031D01*
X03948Y02933D02*
X04031D01*
X04072Y03186D02*
X04155D01*
X04072Y03143D02*
X04155D01*
X04072D02*
Y03186D01*
X04155Y03143D02*
Y03186D01*
X04083Y02811D02*
X04166D01*
X04083Y02768D02*
X04166D01*
X04083D02*
Y02811D01*
X04166Y02768D02*
Y02811D01*
X03554Y02456D02*
X03675D01*
Y02683*
X03554D02*
X03675D01*
X03554Y02456D02*
Y02683D01*
X03948Y03048D02*
Y03091D01*
X04031Y03048D02*
Y03091D01*
X03948D02*
X04031D01*
X03948Y03048D02*
X04031D01*
X03953Y02983D02*
Y03026D01*
X04036Y02983D02*
Y03026D01*
X03953D02*
X04036D01*
X03953Y02983D02*
X04036D01*
X05234Y03146D02*
X05355D01*
Y03373*
X05234D02*
X05355D01*
X05234Y03146D02*
Y03373D01*
X03549Y02726D02*
X0367D01*
Y03253*
X03549D02*
X0367D01*
X03549Y02726D02*
Y03253D01*
X05239Y02871D02*
X0536D01*
Y03098*
X05239D02*
X0536D01*
X05239Y02871D02*
Y03098D01*
M02*