%FSTAX23Y23*%
%MOIN*%
%SFA1B1*%

%IPPOS*%
%ADD15R,0.047244X0.047244*%
%ADD16R,0.059055X0.062992*%
%ADD17R,0.021654X0.051181*%
%ADD18R,0.031496X0.058071*%
%ADD19R,0.098425X0.137795*%
%ADD20R,0.035909X0.037744*%
%ADD21R,0.026476X0.029106*%
%ADD22R,0.028165X0.026476*%
%ADD23O,0.066929X0.017716*%
%ADD24R,0.118110X0.118110*%
%ADD25R,0.027559X0.025591*%
%ADD26R,0.045500X0.067252*%
%ADD27R,0.070866X0.082677*%
%LNmtr_dvr_pcb_paste_top-1*%
%LPD*%
G36*
X04132Y02556D02*
X04059D01*
Y0268*
X04132*
Y02556*
G37*
G54D15*
X03874Y02819D03*
Y0274D03*
X03889Y03224D03*
Y03145D03*
G54D16*
X04002Y0278D03*
X04017Y03185D03*
G54D17*
X04036Y02525D03*
X04155D03*
G54D18*
X04095Y02528D03*
G54D19*
X0502Y02467D03*
Y02722D03*
X04665Y02462D03*
Y02717D03*
G54D20*
X0395Y02603D03*
Y02546D03*
G54D21*
X04235Y02586D03*
Y0255D03*
X0499Y03278D03*
Y03241D03*
X05005Y02998D03*
Y02961D03*
G54D22*
X04435Y0279D03*
X04397D03*
G54D23*
X04179Y03044D03*
Y03018D03*
Y02993D03*
Y02967D03*
Y02942D03*
Y02916D03*
Y02891D03*
Y02865D03*
X0442Y03044D03*
Y03018D03*
Y02993D03*
Y02967D03*
Y02942D03*
Y02916D03*
Y02891D03*
Y02865D03*
G54D24*
X043Y02955D03*
G54D25*
X03976Y02895D03*
X04013D03*
X03971Y02955D03*
X04008D03*
X04095Y03165D03*
X04132D03*
X04106Y0279D03*
X04143D03*
X03971Y0307D03*
X04008D03*
X03976Y03005D03*
X04013D03*
G54D26*
X04804Y0292D03*
X04695D03*
X04804Y03015D03*
X04695D03*
G54D27*
X0514Y03351D03*
Y03178D03*
Y03061D03*
Y02888D03*
M02*