G04*
G04 #@! TF.GenerationSoftware,Altium Limited,Altium Designer,23.3.1 (30)*
G04*
G04 Layer_Physical_Order=1*
G04 Layer_Color=255*
%FSLAX44Y44*%
%MOMM*%
G71*
G04*
G04 #@! TF.SameCoordinates,C21C2CC1-9CAE-44D3-A5A2-357AACA34620*
G04*
G04*
G04 #@! TF.FilePolarity,Positive*
G04*
G01*
G75*
%ADD15R,1.2000X1.2000*%
%ADD16R,1.5000X1.6000*%
%ADD17R,0.5500X1.3000*%
%ADD18R,0.8000X1.4750*%
%ADD19R,2.5000X3.5000*%
%ADD20R,0.9121X0.9587*%
%ADD21R,0.6725X0.7393*%
%ADD22R,0.7154X0.6725*%
%ADD23O,1.7000X0.4500*%
%ADD24R,3.0000X3.0000*%
%ADD25R,0.7000X0.6500*%
%ADD26R,1.1557X1.7082*%
%ADD27R,1.8000X2.1000*%
%ADD38C,0.3000*%
%ADD39C,0.2540*%
G04:AMPARAMS|DCode=40|XSize=1.6mm|YSize=1.6mm|CornerRadius=0.4mm|HoleSize=0mm|Usage=FLASHONLY|Rotation=90.000|XOffset=0mm|YOffset=0mm|HoleType=Round|Shape=RoundedRectangle|*
%AMROUNDEDRECTD40*
21,1,1.6000,0.8000,0,0,90.0*
21,1,0.8000,1.6000,0,0,90.0*
1,1,0.8000,0.4000,0.4000*
1,1,0.8000,0.4000,-0.4000*
1,1,0.8000,-0.4000,-0.4000*
1,1,0.8000,-0.4000,0.4000*
%
%ADD40ROUNDEDRECTD40*%
%ADD41C,1.6000*%
%ADD42C,0.5000*%
G36*
X1031120Y649350D02*
Y680850D01*
X1049620D01*
Y649350D01*
X1031120D01*
D02*
G37*
D15*
X984030Y716120D02*
D03*
Y696120D02*
D03*
X987840Y818990D02*
D03*
Y798990D02*
D03*
D16*
X1016530Y706120D02*
D03*
X1020340Y808990D02*
D03*
D17*
X1025370Y641350D02*
D03*
X1055370D02*
D03*
D18*
X1040370Y642225D02*
D03*
D19*
X1275080Y626630D02*
D03*
Y691630D02*
D03*
X1184910Y625360D02*
D03*
Y690360D02*
D03*
D20*
X1003300Y661317D02*
D03*
Y646783D02*
D03*
D21*
X1075690Y657031D02*
D03*
Y647700D02*
D03*
X1267460Y832706D02*
D03*
Y823374D02*
D03*
X1271270Y761586D02*
D03*
Y752254D02*
D03*
D22*
X1126490Y708660D02*
D03*
X1116919D02*
D03*
D23*
X1061700Y773320D02*
D03*
Y766820D02*
D03*
Y760320D02*
D03*
Y753820D02*
D03*
Y747320D02*
D03*
Y740820D02*
D03*
Y734320D02*
D03*
Y727820D02*
D03*
X1122700Y773320D02*
D03*
Y766820D02*
D03*
Y760320D02*
D03*
Y753820D02*
D03*
Y747320D02*
D03*
Y740820D02*
D03*
Y734320D02*
D03*
Y727820D02*
D03*
D24*
X1092200Y750570D02*
D03*
D25*
X1009980Y735330D02*
D03*
X1019480D02*
D03*
X1008710Y750570D02*
D03*
X1018210D02*
D03*
X1040130Y803910D02*
D03*
X1049630D02*
D03*
X1043000Y708660D02*
D03*
X1052500D02*
D03*
X1008710Y779780D02*
D03*
X1018210D02*
D03*
X1009980Y763270D02*
D03*
X1019480D02*
D03*
D26*
X1220262Y741680D02*
D03*
X1192738D02*
D03*
X1220262Y765810D02*
D03*
X1192738D02*
D03*
D27*
X1305560Y851310D02*
D03*
Y807310D02*
D03*
Y777650D02*
D03*
Y733650D02*
D03*
D38*
X1052500Y708660D02*
X1116704D01*
X1131194Y621550D02*
X1280160D01*
X1002293Y647557D02*
X1006361Y643489D01*
X1006594D01*
X1009423Y640660D01*
X1026400D01*
X1002293Y647557D02*
Y647790D01*
X1130827Y621917D02*
X1131194Y621550D01*
X1129030Y622300D02*
X1129413Y621917D01*
X1130827D01*
X982615Y661171D02*
X995997Y647790D01*
X982615Y661171D02*
Y695975D01*
X995997Y647790D02*
X1002293D01*
X982615Y695975D02*
X985300Y698660D01*
X971550Y698500D02*
X985140D01*
X1083310Y647700D02*
X1126490Y690880D01*
X918210Y640080D02*
X929640Y628650D01*
X1048140D02*
X1056400Y636910D01*
X929640Y628650D02*
X1048140D01*
X1126490Y690880D02*
Y708660D01*
X974090Y793750D02*
X986410D01*
X1126490Y727820D02*
X1145430D01*
X1122680Y773340D02*
Y786130D01*
X1075690Y657031D02*
Y670560D01*
X1049630Y803910D02*
X1060450D01*
X1061700Y773320D02*
Y801994D01*
X1220470Y766018D02*
Y784860D01*
X1220262Y741680D02*
Y765810D01*
X1003300Y661317D02*
Y675640D01*
X1052500Y724340D02*
X1055980Y727820D01*
X1052500Y708660D02*
Y724340D01*
X1181100Y686550D02*
X1264610D01*
X1163990Y708660D02*
X1181100Y691550D01*
X1126490Y708660D02*
X1163320D01*
X1126490D02*
Y726915D01*
X1056400Y640660D02*
X1068984D01*
X1075690Y647366D01*
D39*
X1092200Y733164D02*
Y739570D01*
Y733164D02*
X1116704Y708660D01*
X1092116Y739486D02*
X1093238Y740608D01*
X1088390Y745456D02*
X1093238Y740608D01*
X1081200Y739570D02*
X1088390Y746760D01*
X1116704Y708660D02*
X1116919D01*
X1088390Y745456D02*
Y746760D01*
X1081200Y739570D02*
Y739570D01*
X1042607Y651671D02*
X1047968Y657031D01*
X1042607Y642742D02*
Y651671D01*
X1041400Y641535D02*
X1042607Y642742D01*
X1021270Y747760D02*
X1053624D01*
X1018210Y750570D02*
X1018460D01*
X1021270Y747760D01*
X1019730Y735330D02*
X1021710Y737310D01*
Y737560D02*
X1024530Y740380D01*
X1019480Y735330D02*
X1019730D01*
X1021710Y737310D02*
Y737560D01*
X1024530Y740380D02*
X1053624D01*
X1053689Y740445D01*
X1061325D01*
X1061700Y740820D01*
X916940Y736600D02*
X930910Y750570D01*
X1008710D01*
X1053624Y747760D02*
X1053689Y747695D01*
X1061325D02*
X1061700Y747320D01*
X1053689Y747695D02*
X1061325D01*
X924392Y763270D02*
X1009980D01*
X916940Y759460D02*
X920582D01*
X924392Y763270D01*
X1019480D02*
X1019730D01*
X1021710Y761040D02*
X1028930Y753820D01*
X1019730Y763270D02*
X1021710Y761290D01*
X1028930Y753820D02*
X1061700D01*
X1021710Y761040D02*
Y761290D01*
X1019788Y778452D02*
X1020440Y777800D01*
X1020520D01*
X1038000Y760320D02*
X1061700D01*
X1019788Y778452D02*
Y778532D01*
X1020520Y777800D02*
X1038000Y760320D01*
X1005840Y774700D02*
X1009650Y778510D01*
X1181100Y686550D02*
Y691550D01*
X1019070Y803910D02*
X1040130D01*
X1075690Y647700D02*
X1083310D01*
X985140Y698500D02*
X985300Y698660D01*
X986410Y793750D02*
X986570Y793910D01*
X1145430Y727820D02*
X1145540Y727710D01*
X1156710Y734320D02*
X1156970Y734060D01*
X1122700Y734320D02*
X1156710D01*
X1122700Y727820D02*
X1125585D01*
X1122700Y753820D02*
X1155230D01*
X1155420Y754010D01*
X1122700Y747320D02*
X1162050D01*
X1192738Y765588D02*
Y768350D01*
X1122700Y760320D02*
X1187470D01*
X1192738Y765588D01*
X1122680Y773340D02*
X1122700Y773320D01*
X1047968Y657031D02*
X1075690D01*
X1060450Y803244D02*
X1061700Y801994D01*
X1060450Y803244D02*
Y803910D01*
X1220262Y765810D02*
X1220470Y766018D01*
X1055980Y727820D02*
X1061700D01*
X985300Y718660D02*
X994800Y709160D01*
X1017300D01*
X1017800Y708660D01*
X919516Y777205D02*
X922020Y774700D01*
X919516Y777205D02*
Y782284D01*
X916940Y784860D02*
X919516Y782284D01*
X922020Y774700D02*
X1005840D01*
X1300782Y802532D02*
X1311050Y812800D01*
X1273396Y823374D02*
X1294238Y802532D01*
X1257551Y823374D02*
X1273396D01*
X1294238Y802532D02*
X1300782D01*
X1300480Y733650D02*
Y735220D01*
X1285654Y737870D02*
X1297830D01*
X1273697Y749828D02*
X1285654Y737870D01*
X1297830D02*
X1300480Y735220D01*
X1271270Y761920D02*
X1282780Y773430D01*
X1346200D01*
X1305560Y733650D02*
Y733950D01*
X1313290Y741680D01*
X1346200D01*
X1341120Y812800D02*
X1344930Y816610D01*
X1311050Y812800D02*
X1341120D01*
X1305560Y849810D02*
Y851310D01*
X1313290Y842080D02*
X1314790D01*
X1286064Y851310D02*
X1305560D01*
Y849810D02*
X1313290Y842080D01*
X1314790D02*
X1314860Y842010D01*
X1344930D01*
X1267460Y833040D02*
X1269552Y835132D01*
X1269887D02*
X1284303Y849549D01*
X1284303D01*
X1286064Y851310D01*
X1269552Y835132D02*
X1269887D01*
X1267460Y832706D02*
Y833040D01*
X1256696Y824230D02*
X1257551Y823374D01*
X1256030Y824230D02*
X1256696D01*
X1256237Y832913D02*
X1267253D01*
X1267460Y832706D01*
X1256030Y833120D02*
X1256237Y832913D01*
X1271270Y751920D02*
Y752254D01*
Y751920D02*
X1273362Y749828D01*
X1273697D01*
X1271270Y761586D02*
Y761920D01*
X1260311Y751041D02*
X1270056D01*
X1259840Y750570D02*
X1260311Y751041D01*
X1270056D02*
X1271270Y752254D01*
X1258998Y761158D02*
X1270842D01*
X1258570Y760730D02*
X1258998Y761158D01*
X1270842D02*
X1271270Y761586D01*
X1122700Y740820D02*
X1192738D01*
X1122700Y766820D02*
X1156710D01*
X1156970Y767080D01*
X1125585Y727820D02*
X1126490Y726915D01*
X1075690Y647366D02*
Y647700D01*
X1056400Y636910D02*
Y640660D01*
X1043000Y708660D02*
Y723940D01*
X1053005Y733945D01*
X1061325D01*
X1061700Y734320D01*
X1017800Y708660D02*
X1043000D01*
X1053005Y767195D02*
X1061325D01*
X1061700Y766820D01*
X1040130Y780070D02*
X1053005Y767195D01*
X1040130Y780070D02*
Y803910D01*
X916940Y708660D02*
X942685Y734405D01*
X943610Y735330D02*
X1009980D01*
X942685Y734405D02*
X942685D01*
X943610Y735330D01*
X916940Y734060D02*
Y736600D01*
X986570Y813910D02*
X1009570D01*
X1019070Y804410D01*
Y803910D02*
Y804410D01*
D40*
X918210Y640080D02*
D03*
X1344930Y815340D02*
D03*
X916940Y708660D02*
D03*
X1346200Y745490D02*
D03*
D41*
X918210Y665480D02*
D03*
X1344930Y840740D02*
D03*
X916940Y810260D02*
D03*
Y784860D02*
D03*
Y734060D02*
D03*
Y759460D02*
D03*
X1346200Y770890D02*
D03*
D42*
X1129030Y622300D02*
D03*
X974090Y793750D02*
D03*
X971550Y698500D02*
D03*
X1145540Y727710D02*
D03*
X1155420Y754010D02*
D03*
X1156970Y734060D02*
D03*
X1162050Y748030D02*
D03*
X1122680Y786130D02*
D03*
X1075690Y670560D02*
D03*
X1060450Y803910D02*
D03*
X1220470Y784860D02*
D03*
X1003300Y675640D02*
D03*
X1258570Y760730D02*
D03*
X1259840Y750570D02*
D03*
X1256030Y824230D02*
D03*
Y833120D02*
D03*
X1156970Y767080D02*
D03*
X1081200Y761570D02*
D03*
X1092200D02*
D03*
X1103200D02*
D03*
X1081200Y750570D02*
D03*
X1092200D02*
D03*
X1103200D02*
D03*
X1081200Y739570D02*
D03*
X1092200D02*
D03*
X1103200D02*
D03*
M02*
