G04*
G04 #@! TF.GenerationSoftware,Altium Limited,Altium Designer,23.3.1 (30)*
G04*
G04 Layer_Physical_Order=2*
G04 Layer_Color=16711680*
%FSLAX44Y44*%
%MOMM*%
G71*
G04*
G04 #@! TF.SameCoordinates,C21C2CC1-9CAE-44D3-A5A2-357AACA34620*
G04*
G04*
G04 #@! TF.FilePolarity,Positive*
G04*
G01*
G75*
%ADD38C,0.3000*%
%ADD39C,0.2540*%
G04:AMPARAMS|DCode=40|XSize=1.6mm|YSize=1.6mm|CornerRadius=0.4mm|HoleSize=0mm|Usage=FLASHONLY|Rotation=90.000|XOffset=0mm|YOffset=0mm|HoleType=Round|Shape=RoundedRectangle|*
%AMROUNDEDRECTD40*
21,1,1.6000,0.8000,0,0,90.0*
21,1,0.8000,1.6000,0,0,90.0*
1,1,0.8000,0.4000,0.4000*
1,1,0.8000,0.4000,-0.4000*
1,1,0.8000,-0.4000,-0.4000*
1,1,0.8000,-0.4000,0.4000*
%
%ADD40ROUNDEDRECTD40*%
%ADD41C,1.6000*%
%ADD42C,0.5000*%
G36*
X1394460Y586740D02*
X852170D01*
Y880110D01*
X1394460D01*
Y586740D01*
D02*
G37*
%LPC*%
G36*
X1346318Y851280D02*
X1343542D01*
X1340862Y850562D01*
X1338458Y849174D01*
X1336496Y847212D01*
X1335108Y844808D01*
X1334390Y842128D01*
Y839352D01*
X1335108Y836672D01*
X1336496Y834268D01*
X1338458Y832306D01*
X1340862Y830918D01*
X1343542Y830200D01*
X1346318D01*
X1348998Y830918D01*
X1351402Y832306D01*
X1353364Y834268D01*
X1354752Y836672D01*
X1355470Y839352D01*
Y842128D01*
X1354752Y844808D01*
X1353364Y847212D01*
X1351402Y849174D01*
X1348998Y850562D01*
X1346318Y851280D01*
D02*
G37*
G36*
X1257032Y838160D02*
X1255027D01*
X1253175Y837393D01*
X1252787Y837005D01*
X1223010D01*
X1221523Y836709D01*
X1220263Y835867D01*
X1156516Y772120D01*
X1155967D01*
X1154115Y771353D01*
X1152697Y769935D01*
X1151930Y768083D01*
Y766077D01*
X1152697Y764225D01*
X1154115Y762807D01*
X1155967Y762040D01*
X1157972D01*
X1159825Y762807D01*
X1161243Y764225D01*
X1162010Y766077D01*
Y766626D01*
X1224619Y829235D01*
X1228484D01*
X1228609Y827965D01*
X1227873Y827819D01*
X1226613Y826977D01*
X1158023Y758387D01*
X1156423Y759050D01*
X1154417D01*
X1152565Y758283D01*
X1151147Y756865D01*
X1150695Y755772D01*
X1149425Y756025D01*
Y770890D01*
X1149129Y772377D01*
X1148287Y773637D01*
X1133047Y788877D01*
X1131787Y789719D01*
X1130300Y790015D01*
X1125923D01*
X1125535Y790403D01*
X1123682Y791170D01*
X1121677D01*
X1119825Y790403D01*
X1118407Y788985D01*
X1117640Y787132D01*
Y785127D01*
X1118407Y783275D01*
X1119825Y781857D01*
X1121677Y781090D01*
X1123682D01*
X1125535Y781857D01*
X1125923Y782245D01*
X1128691D01*
X1141655Y769281D01*
Y730953D01*
X1141267Y730565D01*
X1140500Y728712D01*
Y726708D01*
X1141267Y724855D01*
X1142685Y723437D01*
X1144538Y722670D01*
X1146543D01*
X1148395Y723437D01*
X1149813Y724855D01*
X1150580Y726708D01*
Y728712D01*
X1149813Y730565D01*
X1149425Y730953D01*
Y751995D01*
X1150695Y752248D01*
X1151147Y751155D01*
X1152565Y749737D01*
X1154417Y748970D01*
X1156423D01*
X1157010Y747839D01*
Y747028D01*
X1157777Y745175D01*
X1159195Y743757D01*
X1161048Y742990D01*
X1163053D01*
X1164905Y743757D01*
X1165293Y744145D01*
X1245870D01*
X1247357Y744441D01*
X1248617Y745283D01*
X1253497Y750163D01*
X1254671Y749748D01*
X1254950Y748634D01*
X1244261Y737945D01*
X1160213D01*
X1159825Y738333D01*
X1157972Y739100D01*
X1155967D01*
X1154115Y738333D01*
X1152697Y736915D01*
X1151930Y735062D01*
Y733057D01*
X1152697Y731205D01*
X1154115Y729787D01*
X1155967Y729020D01*
X1157972D01*
X1159825Y729787D01*
X1160213Y730175D01*
X1245870D01*
X1247357Y730471D01*
X1248617Y731313D01*
X1262116Y744812D01*
X1262958Y746073D01*
X1263079Y746682D01*
X1264113Y747715D01*
X1264880Y749567D01*
Y751572D01*
X1264113Y753425D01*
X1262695Y754843D01*
X1261770Y755226D01*
X1261639Y755694D01*
X1261627Y756660D01*
X1262843Y757875D01*
X1263610Y759727D01*
Y761732D01*
X1262843Y763585D01*
X1261425Y765003D01*
X1259573Y765770D01*
X1257568D01*
X1255715Y765003D01*
X1254297Y763585D01*
X1253530Y761732D01*
Y761184D01*
X1244261Y751915D01*
X1165293D01*
X1164905Y752303D01*
X1164562Y752445D01*
X1164314Y753690D01*
X1230969Y820345D01*
X1252787D01*
X1253175Y819957D01*
X1255027Y819190D01*
X1257032D01*
X1258885Y819957D01*
X1260303Y821375D01*
X1261070Y823227D01*
Y825232D01*
X1260303Y827085D01*
X1259542Y827845D01*
X1258998Y828675D01*
X1259542Y829505D01*
X1260303Y830265D01*
X1261070Y832117D01*
Y834122D01*
X1260303Y835975D01*
X1258885Y837393D01*
X1257032Y838160D01*
D02*
G37*
G36*
X918328Y820800D02*
X918210D01*
Y811530D01*
X927480D01*
Y811648D01*
X926762Y814328D01*
X925374Y816732D01*
X923412Y818694D01*
X921008Y820082D01*
X918328Y820800D01*
D02*
G37*
G36*
X915670D02*
X915552D01*
X912872Y820082D01*
X910468Y818694D01*
X908506Y816732D01*
X907118Y814328D01*
X906400Y811648D01*
Y811530D01*
X915670D01*
Y820800D01*
D02*
G37*
G36*
X1061720Y808839D02*
Y805180D01*
X1065379D01*
X1064723Y806765D01*
X1063305Y808183D01*
X1061720Y808839D01*
D02*
G37*
G36*
X1059180D02*
X1057595Y808183D01*
X1056177Y806765D01*
X1055521Y805180D01*
X1059180D01*
Y808839D01*
D02*
G37*
G36*
X1348930Y825936D02*
X1340930D01*
X1339223Y825712D01*
X1337632Y825053D01*
X1336266Y824004D01*
X1335217Y822638D01*
X1334558Y821047D01*
X1334334Y819340D01*
Y811340D01*
X1334558Y809633D01*
X1335217Y808042D01*
X1336266Y806676D01*
X1337632Y805627D01*
X1339223Y804968D01*
X1340930Y804744D01*
X1348930D01*
X1350637Y804968D01*
X1352228Y805627D01*
X1353594Y806676D01*
X1354643Y808042D01*
X1355302Y809633D01*
X1355526Y811340D01*
Y819340D01*
X1355302Y821047D01*
X1354643Y822638D01*
X1353594Y824004D01*
X1352228Y825053D01*
X1350637Y825712D01*
X1348930Y825936D01*
D02*
G37*
G36*
X927480Y808990D02*
X918210D01*
Y799720D01*
X918328D01*
X921008Y800438D01*
X923412Y801826D01*
X925374Y803788D01*
X926762Y806192D01*
X927480Y808872D01*
Y808990D01*
D02*
G37*
G36*
X915670D02*
X906400D01*
Y808872D01*
X907118Y806192D01*
X908506Y803788D01*
X910468Y801826D01*
X912872Y800438D01*
X915552Y799720D01*
X915670D01*
Y808990D01*
D02*
G37*
G36*
X1065379Y802640D02*
X1061720D01*
Y798981D01*
X1063305Y799637D01*
X1064723Y801055D01*
X1065379Y802640D01*
D02*
G37*
G36*
X1059180D02*
X1055521D01*
X1056177Y801055D01*
X1057595Y799637D01*
X1059180Y798981D01*
Y802640D01*
D02*
G37*
G36*
X1221740Y789789D02*
Y786130D01*
X1225399D01*
X1224743Y787715D01*
X1223325Y789133D01*
X1221740Y789789D01*
D02*
G37*
G36*
X1219200D02*
X1217615Y789133D01*
X1216197Y787715D01*
X1215541Y786130D01*
X1219200D01*
Y789789D01*
D02*
G37*
G36*
X1225399Y783590D02*
X1221740D01*
Y779931D01*
X1223325Y780587D01*
X1224743Y782005D01*
X1225399Y783590D01*
D02*
G37*
G36*
X1219200D02*
X1215541D01*
X1216197Y782005D01*
X1217615Y780587D01*
X1219200Y779931D01*
Y783590D01*
D02*
G37*
G36*
X918328Y795400D02*
X915552D01*
X912872Y794682D01*
X910468Y793294D01*
X908506Y791332D01*
X907118Y788928D01*
X906400Y786248D01*
Y783472D01*
X907118Y780792D01*
X908506Y778388D01*
X910468Y776426D01*
X912872Y775038D01*
X915552Y774320D01*
X918328D01*
X921008Y775038D01*
X923412Y776426D01*
X925374Y778388D01*
X926762Y780792D01*
X927480Y783472D01*
Y786248D01*
X926762Y788928D01*
X925374Y791332D01*
X923412Y793294D01*
X921008Y794682D01*
X918328Y795400D01*
D02*
G37*
G36*
X1101930Y766499D02*
X1100345Y765843D01*
X1098927Y764425D01*
X1098387Y763121D01*
X1097013D01*
X1096473Y764425D01*
X1095055Y765843D01*
X1093470Y766499D01*
Y761570D01*
X1090930D01*
Y766499D01*
X1089345Y765843D01*
X1087927Y764425D01*
X1087387Y763121D01*
X1086013D01*
X1085473Y764425D01*
X1084055Y765843D01*
X1082470Y766499D01*
Y761570D01*
X1081200D01*
Y760300D01*
X1076271D01*
X1076927Y758715D01*
X1078345Y757297D01*
X1079649Y756757D01*
Y755383D01*
X1078345Y754843D01*
X1076927Y753425D01*
X1076271Y751840D01*
X1081200D01*
Y749300D01*
X1076271D01*
X1076927Y747715D01*
X1078345Y746297D01*
X1079649Y745757D01*
Y744383D01*
X1078345Y743843D01*
X1076927Y742425D01*
X1076271Y740840D01*
X1081200D01*
Y739570D01*
X1082470D01*
Y734641D01*
X1084055Y735297D01*
X1085473Y736715D01*
X1086013Y738019D01*
X1087387D01*
X1087927Y736715D01*
X1089345Y735297D01*
X1090930Y734641D01*
Y739570D01*
X1093470D01*
Y734641D01*
X1095055Y735297D01*
X1096473Y736715D01*
X1097013Y738019D01*
X1098387D01*
X1098927Y736715D01*
X1100345Y735297D01*
X1101930Y734641D01*
Y739570D01*
X1103200D01*
Y740840D01*
X1108129D01*
X1107473Y742425D01*
X1106055Y743843D01*
X1104751Y744383D01*
Y745757D01*
X1106055Y746297D01*
X1107473Y747715D01*
X1108129Y749300D01*
X1103200D01*
Y751840D01*
X1108129D01*
X1107473Y753425D01*
X1106055Y754843D01*
X1104751Y755383D01*
Y756757D01*
X1106055Y757297D01*
X1107473Y758715D01*
X1108129Y760300D01*
X1103200D01*
Y761570D01*
X1101930D01*
Y766499D01*
D02*
G37*
G36*
X1104470D02*
Y762840D01*
X1108129D01*
X1107473Y764425D01*
X1106055Y765843D01*
X1104470Y766499D01*
D02*
G37*
G36*
X1079930D02*
X1078345Y765843D01*
X1076927Y764425D01*
X1076271Y762840D01*
X1079930D01*
Y766499D01*
D02*
G37*
G36*
X1347588Y781430D02*
X1344812D01*
X1342132Y780712D01*
X1339728Y779324D01*
X1337766Y777362D01*
X1336378Y774958D01*
X1335660Y772278D01*
Y769502D01*
X1336378Y766822D01*
X1337766Y764418D01*
X1339728Y762456D01*
X1342132Y761068D01*
X1344812Y760350D01*
X1347588D01*
X1350268Y761068D01*
X1352672Y762456D01*
X1354634Y764418D01*
X1356022Y766822D01*
X1356740Y769502D01*
Y772278D01*
X1356022Y774958D01*
X1354634Y777362D01*
X1352672Y779324D01*
X1350268Y780712D01*
X1347588Y781430D01*
D02*
G37*
G36*
X918328Y770000D02*
X915552D01*
X912872Y769282D01*
X910468Y767894D01*
X908506Y765932D01*
X907118Y763528D01*
X906400Y760848D01*
Y758072D01*
X907118Y755392D01*
X908506Y752988D01*
X910468Y751026D01*
X912872Y749638D01*
X915552Y748920D01*
X918328D01*
X921008Y749638D01*
X923412Y751026D01*
X925374Y752988D01*
X926762Y755392D01*
X927480Y758072D01*
Y760848D01*
X926762Y763528D01*
X925374Y765932D01*
X923412Y767894D01*
X921008Y769282D01*
X918328Y770000D01*
D02*
G37*
G36*
X1350200Y756086D02*
X1342200D01*
X1340493Y755862D01*
X1338902Y755203D01*
X1337536Y754154D01*
X1336487Y752788D01*
X1335828Y751197D01*
X1335604Y749490D01*
Y741490D01*
X1335828Y739783D01*
X1336487Y738192D01*
X1337536Y736826D01*
X1338902Y735777D01*
X1340493Y735118D01*
X1342200Y734894D01*
X1350200D01*
X1351907Y735118D01*
X1353498Y735777D01*
X1354864Y736826D01*
X1355913Y738192D01*
X1356572Y739783D01*
X1356796Y741490D01*
Y749490D01*
X1356572Y751197D01*
X1355913Y752788D01*
X1354864Y754154D01*
X1353498Y755203D01*
X1351907Y755862D01*
X1350200Y756086D01*
D02*
G37*
G36*
X1108129Y738300D02*
X1104470D01*
Y734641D01*
X1106055Y735297D01*
X1107473Y736715D01*
X1108129Y738300D01*
D02*
G37*
G36*
X1079930D02*
X1076271D01*
X1076927Y736715D01*
X1078345Y735297D01*
X1079930Y734641D01*
Y738300D01*
D02*
G37*
G36*
X918328Y744600D02*
X915552D01*
X912872Y743882D01*
X910468Y742494D01*
X908506Y740532D01*
X907118Y738128D01*
X906400Y735448D01*
Y732672D01*
X907118Y729992D01*
X908506Y727588D01*
X910468Y725626D01*
X912872Y724238D01*
X915552Y723520D01*
X918328D01*
X921008Y724238D01*
X923412Y725626D01*
X925374Y727588D01*
X926762Y729992D01*
X927480Y732672D01*
Y735448D01*
X926762Y738128D01*
X925374Y740532D01*
X923412Y742494D01*
X921008Y743882D01*
X918328Y744600D01*
D02*
G37*
G36*
X920940Y719256D02*
X912940D01*
X911233Y719032D01*
X909642Y718373D01*
X908276Y717324D01*
X907227Y715958D01*
X906568Y714367D01*
X906344Y712660D01*
Y704660D01*
X906568Y702953D01*
X907227Y701362D01*
X908276Y699996D01*
X909642Y698947D01*
X911233Y698288D01*
X912940Y698064D01*
X920940D01*
X922647Y698288D01*
X924238Y698947D01*
X925604Y699996D01*
X926653Y701362D01*
X927312Y702953D01*
X927536Y704660D01*
Y712660D01*
X927312Y714367D01*
X926653Y715958D01*
X925604Y717324D01*
X924238Y718373D01*
X922647Y719032D01*
X920940Y719256D01*
D02*
G37*
G36*
X975092Y798790D02*
X973087D01*
X971235Y798023D01*
X969817Y796605D01*
X969050Y794753D01*
Y793733D01*
X968637Y793457D01*
X967744Y792121D01*
X967431Y790544D01*
Y701508D01*
X967277Y701355D01*
X966510Y699502D01*
Y697497D01*
X967277Y695645D01*
X968695Y694227D01*
X970547Y693460D01*
X972552D01*
X974405Y694227D01*
X975823Y695645D01*
X976590Y697497D01*
Y699502D01*
X975823Y701355D01*
X975669Y701508D01*
Y788949D01*
X976945Y789477D01*
X978363Y790895D01*
X979130Y792747D01*
Y794753D01*
X978363Y796605D01*
X976945Y798023D01*
X975092Y798790D01*
D02*
G37*
G36*
X1004570Y680569D02*
Y676910D01*
X1008229D01*
X1007573Y678495D01*
X1006155Y679913D01*
X1004570Y680569D01*
D02*
G37*
G36*
X1002030D02*
X1000445Y679913D01*
X999027Y678495D01*
X998371Y676910D01*
X1002030D01*
Y680569D01*
D02*
G37*
G36*
X1076960Y675489D02*
Y671830D01*
X1080619D01*
X1079963Y673415D01*
X1078545Y674833D01*
X1076960Y675489D01*
D02*
G37*
G36*
X1074420D02*
X1072835Y674833D01*
X1071417Y673415D01*
X1070761Y671830D01*
X1074420D01*
Y675489D01*
D02*
G37*
G36*
X1008229Y674370D02*
X1004570D01*
Y670711D01*
X1006155Y671367D01*
X1007573Y672785D01*
X1008229Y674370D01*
D02*
G37*
G36*
X1002030D02*
X998371D01*
X999027Y672785D01*
X1000445Y671367D01*
X1002030Y670711D01*
Y674370D01*
D02*
G37*
G36*
X919598Y676020D02*
X919480D01*
Y666750D01*
X928750D01*
Y666868D01*
X928032Y669548D01*
X926644Y671952D01*
X924682Y673914D01*
X922278Y675302D01*
X919598Y676020D01*
D02*
G37*
G36*
X916940D02*
X916822D01*
X914142Y675302D01*
X911738Y673914D01*
X909776Y671952D01*
X908388Y669548D01*
X907670Y666868D01*
Y666750D01*
X916940D01*
Y676020D01*
D02*
G37*
G36*
X1080619Y669290D02*
X1076960D01*
Y665631D01*
X1078545Y666287D01*
X1079963Y667705D01*
X1080619Y669290D01*
D02*
G37*
G36*
X1074420D02*
X1070761D01*
X1071417Y667705D01*
X1072835Y666287D01*
X1074420Y665631D01*
Y669290D01*
D02*
G37*
G36*
X928750Y664210D02*
X919480D01*
Y654940D01*
X919598D01*
X922278Y655658D01*
X924682Y657046D01*
X926644Y659008D01*
X928032Y661412D01*
X928750Y664092D01*
Y664210D01*
D02*
G37*
G36*
X916940D02*
X907670D01*
Y664092D01*
X908388Y661412D01*
X909776Y659008D01*
X911738Y657046D01*
X914142Y655658D01*
X916822Y654940D01*
X916940D01*
Y664210D01*
D02*
G37*
G36*
X922210Y650676D02*
X914210D01*
X912503Y650452D01*
X910912Y649793D01*
X909546Y648744D01*
X908497Y647378D01*
X907838Y645787D01*
X907614Y644080D01*
Y636080D01*
X907838Y634373D01*
X908497Y632782D01*
X909546Y631416D01*
X910912Y630367D01*
X912503Y629708D01*
X914210Y629484D01*
X922210D01*
X923917Y629708D01*
X925508Y630367D01*
X926874Y631416D01*
X927923Y632782D01*
X928582Y634373D01*
X928806Y636080D01*
Y644080D01*
X928582Y645787D01*
X927923Y647378D01*
X926874Y648744D01*
X925508Y649793D01*
X923917Y650452D01*
X922210Y650676D01*
D02*
G37*
G36*
X1130300Y627229D02*
Y623570D01*
X1133959D01*
X1133303Y625155D01*
X1131885Y626573D01*
X1130300Y627229D01*
D02*
G37*
G36*
X1127760D02*
X1126175Y626573D01*
X1124757Y625155D01*
X1124101Y623570D01*
X1127760D01*
Y627229D01*
D02*
G37*
G36*
X1133959Y621030D02*
X1130300D01*
Y617371D01*
X1131885Y618027D01*
X1133303Y619445D01*
X1133959Y621030D01*
D02*
G37*
G36*
X1127760D02*
X1124101D01*
X1124757Y619445D01*
X1126175Y618027D01*
X1127760Y617371D01*
Y621030D01*
D02*
G37*
%LPD*%
D38*
X971550Y698573D02*
Y790544D01*
D39*
X1092200Y739570D02*
Y750570D01*
X971550Y790544D02*
X974090Y793084D01*
Y793750D01*
X1130300Y786130D02*
X1145540Y770890D01*
Y727710D02*
Y770890D01*
X1122680Y786130D02*
X1130300D01*
X1155750Y754340D02*
X1159470D01*
X1155420Y754010D02*
X1155750Y754340D01*
X1159470D02*
X1229360Y824230D01*
X1162050Y748030D02*
X1245870D01*
X1156970Y734060D02*
X1245870D01*
X1259369Y747559D01*
Y750099D02*
X1259840Y750570D01*
X1259369Y747559D02*
Y750099D01*
X1245870Y748030D02*
X1258570Y760730D01*
X1229360Y824230D02*
X1256030D01*
X1223010Y833120D02*
X1256030D01*
X1156970Y767080D02*
X1223010Y833120D01*
D40*
X918210Y640080D02*
D03*
X1344930Y815340D02*
D03*
X916940Y708660D02*
D03*
X1346200Y745490D02*
D03*
D41*
X918210Y665480D02*
D03*
X1344930Y840740D02*
D03*
X916940Y810260D02*
D03*
Y784860D02*
D03*
Y734060D02*
D03*
Y759460D02*
D03*
X1346200Y770890D02*
D03*
D42*
X1129030Y622300D02*
D03*
X974090Y793750D02*
D03*
X971550Y698500D02*
D03*
X1145540Y727710D02*
D03*
X1155420Y754010D02*
D03*
X1156970Y734060D02*
D03*
X1162050Y748030D02*
D03*
X1122680Y786130D02*
D03*
X1075690Y670560D02*
D03*
X1060450Y803910D02*
D03*
X1220470Y784860D02*
D03*
X1003300Y675640D02*
D03*
X1258570Y760730D02*
D03*
X1259840Y750570D02*
D03*
X1256030Y824230D02*
D03*
Y833120D02*
D03*
X1156970Y767080D02*
D03*
X1081200Y761570D02*
D03*
X1092200D02*
D03*
X1103200D02*
D03*
X1081200Y750570D02*
D03*
X1092200D02*
D03*
X1103200D02*
D03*
X1081200Y739570D02*
D03*
X1092200D02*
D03*
X1103200D02*
D03*
M02*
