M48
;Layer_Color=9474304
;FILE_FORMAT=4:4
METRIC,TZ
;TYPE=PLATED
T1F00S00C0.2000
T2F00S00C0.3000
T3F00S00C1.1000
%
T01
X1081200Y739570
X1092200
Y750570
X1081200
Y761570
X1092200
X1103200
Y750570
Y739570
T02
X1220470Y784860
X1258570Y760730
X1259840Y750570
X1162050Y748030
X1155420Y754010
X1156970Y767080
Y734060
X1145540Y727710
X1122680Y786130
X1075690Y670560
X1003300Y675640
X971550Y698500
X1129030Y622300
X1060450Y803910
X974090Y793750
X1256030Y824230
Y833120
T03
X1346200Y745490
Y770890
X916940Y759460
Y784860
Y734060
Y708660
X918210Y665480
Y640080
X916940Y810260
X1344930Y815340
Y840740
M30
