G04*
G04 #@! TF.GenerationSoftware,Altium Limited,Altium Designer,23.3.1 (30)*
G04*
G04 Layer_Color=32768*
%FSLAX44Y44*%
%MOMM*%
G71*
G04*
G04 #@! TF.SameCoordinates,C21C2CC1-9CAE-44D3-A5A2-357AACA34620*
G04*
G04*
G04 #@! TF.FilePolarity,Positive*
G04*
G01*
G75*
%ADD11C,0.2000*%
%ADD43C,0.1000*%
%ADD44C,0.0500*%
D11*
X1230080Y606630D02*
Y711630D01*
X1320080D01*
Y606630D02*
Y711630D01*
X1230080Y606630D02*
X1320080D01*
X1139910Y605360D02*
Y710360D01*
X1229910D01*
Y605360D02*
Y710360D01*
X1139910Y605360D02*
X1229910D01*
X1010361Y639489D02*
Y668611D01*
X996239Y639489D02*
X1010361D01*
X996239D02*
Y668611D01*
X1010361D01*
X1081052Y642003D02*
Y662728D01*
X1070328Y642003D02*
X1081052D01*
X1070328D02*
Y662728D01*
X1081052D01*
X1111342Y703298D02*
Y714022D01*
Y703298D02*
X1132067D01*
Y714022D01*
X1111342D02*
X1132067D01*
X1184459Y730639D02*
Y752721D01*
Y730639D02*
X1228541D01*
Y752721D01*
X1184459D02*
X1228541D01*
X1184459Y754769D02*
Y776851D01*
Y754769D02*
X1228541D01*
Y776851D01*
X1184459D02*
X1228541D01*
X1320510Y795810D02*
Y862810D01*
X1290610Y795810D02*
X1320510D01*
X1290610D02*
Y862810D01*
X1320510D01*
X1272822Y817678D02*
Y838402D01*
X1262098Y817678D02*
X1272822D01*
X1262098D02*
Y838402D01*
X1272822D01*
X1320510Y722150D02*
Y789150D01*
X1290610Y722150D02*
X1320510D01*
X1290610D02*
Y789150D01*
X1320510D01*
X1276632Y746558D02*
Y767282D01*
X1265908Y746558D02*
X1276632D01*
X1265908D02*
Y767282D01*
X1276632D01*
D43*
X997030Y706120D02*
X1007030D01*
X1002030Y701120D02*
Y711120D01*
X1040370Y654075D02*
Y664075D01*
X1035370Y659075D02*
X1045370D01*
X1000840Y808990D02*
X1010840D01*
X1005840Y803990D02*
Y813990D01*
X1087200Y750570D02*
X1097200D01*
X1092200Y745570D02*
Y755570D01*
X1011980Y735330D02*
X1017480D01*
X1014730Y732580D02*
Y738080D01*
X1010710Y750570D02*
X1016210D01*
X1013460Y747820D02*
Y753320D01*
X1044880Y801160D02*
Y806660D01*
X1042130Y803910D02*
X1047630D01*
X1047750Y705910D02*
Y711410D01*
X1045000Y708660D02*
X1050500D01*
X1010710Y779780D02*
X1016210D01*
X1013460Y777030D02*
Y782530D01*
X1011980Y763270D02*
X1017480D01*
X1014730Y760520D02*
Y766020D01*
D44*
X977030Y725120D02*
X1025030D01*
X977030Y687120D02*
Y725120D01*
Y687120D02*
X1025030D01*
Y725120D01*
X1014870Y631350D02*
X1065870D01*
X1014870Y678350D02*
X1065870D01*
X1014870Y631350D02*
Y678350D01*
X1065870Y631350D02*
Y678350D01*
X980840Y827990D02*
X1028840D01*
X980840Y789990D02*
Y827990D01*
Y789990D02*
X1028840D01*
Y827990D01*
X1053200Y722570D02*
Y778570D01*
X1131200Y722570D02*
Y778570D01*
X1053200D02*
X1131200D01*
X1053200Y722570D02*
X1131200D01*
X1004230Y729830D02*
Y740830D01*
X1025230Y729830D02*
Y740830D01*
X1004230D02*
X1025230D01*
X1004230Y729830D02*
X1025230D01*
X1002960Y745070D02*
Y756070D01*
X1023960Y745070D02*
Y756070D01*
X1002960D02*
X1023960D01*
X1002960Y745070D02*
X1023960D01*
X1034380Y809410D02*
X1055380D01*
X1034380Y798410D02*
X1055380D01*
X1034380D02*
Y809410D01*
X1055380Y798410D02*
Y809410D01*
X1037250Y714160D02*
X1058250D01*
X1037250Y703160D02*
X1058250D01*
X1037250D02*
Y714160D01*
X1058250Y703160D02*
Y714160D01*
X902760Y623880D02*
X933660D01*
Y681680D01*
X902760D02*
X933660D01*
X902760Y623880D02*
Y681680D01*
X1002960Y774280D02*
Y785280D01*
X1023960Y774280D02*
Y785280D01*
X1002960D02*
X1023960D01*
X1002960Y774280D02*
X1023960D01*
X1004230Y757770D02*
Y768770D01*
X1025230Y757770D02*
Y768770D01*
X1004230D02*
X1025230D01*
X1004230Y757770D02*
X1025230D01*
X1329480Y799140D02*
X1360380D01*
Y856940D01*
X1329480D02*
X1360380D01*
X1329480Y799140D02*
Y856940D01*
X901490Y692460D02*
X932390D01*
Y826460D01*
X901490D02*
X932390D01*
X901490Y692460D02*
Y826460D01*
X1330750Y729290D02*
X1361650D01*
Y787090D01*
X1330750D02*
X1361650D01*
X1330750Y729290D02*
Y787090D01*
M02*
