G04*
G04 #@! TF.GenerationSoftware,Altium Limited,Altium Designer,23.3.1 (30)*
G04*
G04 Layer_Color=128*
%FSLAX44Y44*%
%MOMM*%
G71*
G04*
G04 #@! TF.SameCoordinates,C21C2CC1-9CAE-44D3-A5A2-357AACA34620*
G04*
G04*
G04 #@! TF.FilePolarity,Positive*
G04*
G01*
G75*
%ADD13C,0.1270*%
D13*
X912710Y640080D02*
X923710D01*
X918210Y634580D02*
Y645580D01*
X912710Y665480D02*
X923710D01*
X918210Y659980D02*
Y670980D01*
X1339430Y815340D02*
X1350430D01*
X1344930Y809840D02*
Y820840D01*
X1339430Y840740D02*
X1350430D01*
X1344930Y835240D02*
Y846240D01*
X911440Y810260D02*
X922440D01*
X916940Y804760D02*
Y815760D01*
X911440Y784860D02*
X922440D01*
X916940Y779360D02*
Y790360D01*
X911440Y734060D02*
X922440D01*
X916940Y728560D02*
Y739560D01*
X911440Y708660D02*
X922440D01*
X916940Y703160D02*
Y714160D01*
X911440Y759460D02*
X922440D01*
X916940Y753960D02*
Y764960D01*
X1340700Y745490D02*
X1351700D01*
X1346200Y739990D02*
Y750990D01*
X1340700Y770890D02*
X1351700D01*
X1346200Y765390D02*
Y776390D01*
X1127530Y622300D02*
X1130530D01*
X1129030Y620800D02*
Y623800D01*
X972590Y793750D02*
X975590D01*
X974090Y792250D02*
Y795250D01*
X970050Y698500D02*
X973050D01*
X971550Y697000D02*
Y700000D01*
X1144040Y727710D02*
X1147040D01*
X1145540Y726210D02*
Y729210D01*
X1153920Y754010D02*
X1156920D01*
X1155420Y752510D02*
Y755510D01*
X1155470Y734060D02*
X1158470D01*
X1156970Y732560D02*
Y735560D01*
X1160550Y748030D02*
X1163550D01*
X1162050Y746530D02*
Y749530D01*
X1121180Y786130D02*
X1124180D01*
X1122680Y784630D02*
Y787630D01*
X1074190Y670560D02*
X1077190D01*
X1075690Y669060D02*
Y672060D01*
X1058950Y803910D02*
X1061950D01*
X1060450Y802410D02*
Y805410D01*
X1218970Y784860D02*
X1221970D01*
X1220470Y783360D02*
Y786360D01*
X1001800Y675640D02*
X1004800D01*
X1003300Y674140D02*
Y677140D01*
X1257070Y760730D02*
X1260070D01*
X1258570Y759230D02*
Y762230D01*
X1258340Y750570D02*
X1261340D01*
X1259840Y749070D02*
Y752070D01*
X1254530Y824230D02*
X1257530D01*
X1256030Y822730D02*
Y825730D01*
X1254530Y833120D02*
X1257530D01*
X1256030Y831620D02*
Y834620D01*
X1155470Y767080D02*
X1158470D01*
X1156970Y765580D02*
Y768580D01*
X1080200Y761570D02*
X1082200D01*
X1081200Y760570D02*
Y762570D01*
X1091200Y761570D02*
X1093200D01*
X1092200Y760570D02*
Y762570D01*
X1102200Y761570D02*
X1104200D01*
X1103200Y760570D02*
Y762570D01*
X1080200Y750570D02*
X1082200D01*
X1081200Y749570D02*
Y751570D01*
X1091200Y750570D02*
X1093200D01*
X1092200Y749570D02*
Y751570D01*
X1102200Y750570D02*
X1104200D01*
X1103200Y749570D02*
Y751570D01*
X1080200Y739570D02*
X1082200D01*
X1081200Y738570D02*
Y740570D01*
X1091200Y739570D02*
X1093200D01*
X1092200Y738570D02*
Y740570D01*
X1102200Y739570D02*
X1104200D01*
X1103200Y738570D02*
Y740570D01*
M02*
