G04*
G04 #@! TF.GenerationSoftware,Altium Limited,Altium Designer,23.3.1 (30)*
G04*
G04 Layer_Color=8421504*
%FSLAX44Y44*%
%MOMM*%
G71*
G04*
G04 #@! TF.SameCoordinates,C21C2CC1-9CAE-44D3-A5A2-357AACA34620*
G04*
G04*
G04 #@! TF.FilePolarity,Positive*
G04*
G01*
G75*
%ADD15R,1.2000X1.2000*%
%ADD16R,1.5000X1.6000*%
%ADD17R,0.5500X1.3000*%
%ADD18R,0.8000X1.4750*%
%ADD19R,2.5000X3.5000*%
%ADD20R,0.9121X0.9587*%
%ADD21R,0.6725X0.7393*%
%ADD22R,0.7154X0.6725*%
%ADD23O,1.7000X0.4500*%
%ADD24R,3.0000X3.0000*%
%ADD25R,0.7000X0.6500*%
%ADD26R,1.1557X1.7082*%
%ADD27R,1.8000X2.1000*%
G36*
X1049620Y649350D02*
X1031120D01*
Y680850D01*
X1049620D01*
Y649350D01*
D02*
G37*
D15*
X984030Y716120D02*
D03*
Y696120D02*
D03*
X987840Y818990D02*
D03*
Y798990D02*
D03*
D16*
X1016530Y706120D02*
D03*
X1020340Y808990D02*
D03*
D17*
X1025370Y641350D02*
D03*
X1055370D02*
D03*
D18*
X1040370Y642225D02*
D03*
D19*
X1275080Y626630D02*
D03*
Y691630D02*
D03*
X1184910Y625360D02*
D03*
Y690360D02*
D03*
D20*
X1003300Y661317D02*
D03*
Y646783D02*
D03*
D21*
X1075690Y657031D02*
D03*
Y647700D02*
D03*
X1267460Y832706D02*
D03*
Y823374D02*
D03*
X1271270Y761586D02*
D03*
Y752254D02*
D03*
D22*
X1126490Y708660D02*
D03*
X1116919D02*
D03*
D23*
X1061700Y773320D02*
D03*
Y766820D02*
D03*
Y760320D02*
D03*
Y753820D02*
D03*
Y747320D02*
D03*
Y740820D02*
D03*
Y734320D02*
D03*
Y727820D02*
D03*
X1122700Y773320D02*
D03*
Y766820D02*
D03*
Y760320D02*
D03*
Y753820D02*
D03*
Y747320D02*
D03*
Y740820D02*
D03*
Y734320D02*
D03*
Y727820D02*
D03*
D24*
X1092200Y750570D02*
D03*
D25*
X1009980Y735330D02*
D03*
X1019480D02*
D03*
X1008710Y750570D02*
D03*
X1018210D02*
D03*
X1040130Y803910D02*
D03*
X1049630D02*
D03*
X1043000Y708660D02*
D03*
X1052500D02*
D03*
X1008710Y779780D02*
D03*
X1018210D02*
D03*
X1009980Y763270D02*
D03*
X1019480D02*
D03*
D26*
X1220262Y741680D02*
D03*
X1192738D02*
D03*
X1220262Y765810D02*
D03*
X1192738D02*
D03*
D27*
X1305560Y851310D02*
D03*
Y807310D02*
D03*
Y777650D02*
D03*
Y733650D02*
D03*
M02*
