G04*
G04 #@! TF.GenerationSoftware,Altium Limited,Altium Designer,23.3.1 (30)*
G04*
G04 Layer_Color=16711935*
%FSLAX44Y44*%
%MOMM*%
G71*
G04*
G04 #@! TF.SameCoordinates,C21C2CC1-9CAE-44D3-A5A2-357AACA34620*
G04*
G04*
G04 #@! TF.FilePolarity,Positive*
G04*
G01*
G75*
%ADD11C,0.2000*%
G36*
X1311958Y826851D02*
X1311949Y826684D01*
X1311939Y826499D01*
X1311921Y826314D01*
X1311893Y826130D01*
X1311865Y825972D01*
Y825963D01*
X1311856Y825945D01*
Y825917D01*
X1311838Y825880D01*
X1311810Y825778D01*
X1311764Y825649D01*
X1311699Y825501D01*
X1311616Y825344D01*
X1311523Y825186D01*
X1311403Y825039D01*
X1311394Y825029D01*
X1311385Y825020D01*
X1311357Y824992D01*
X1311329Y824955D01*
X1311237Y824863D01*
X1311107Y824752D01*
X1310950Y824632D01*
X1310765Y824502D01*
X1310553Y824382D01*
X1310312Y824280D01*
X1310303D01*
X1310284Y824271D01*
X1310247Y824253D01*
X1310192Y824243D01*
X1310127Y824216D01*
X1310053Y824197D01*
X1309970Y824179D01*
X1309868Y824151D01*
X1309767Y824123D01*
X1309646Y824105D01*
X1309388Y824059D01*
X1309101Y824031D01*
X1308787Y824022D01*
X1308777D01*
X1308759D01*
X1308713D01*
X1308666D01*
X1308602Y824031D01*
X1308528D01*
X1308352Y824040D01*
X1308149Y824068D01*
X1307936Y824096D01*
X1307714Y824142D01*
X1307492Y824197D01*
X1307483D01*
X1307464Y824206D01*
X1307437Y824216D01*
X1307400Y824225D01*
X1307298Y824262D01*
X1307169Y824317D01*
X1307021Y824373D01*
X1306873Y824447D01*
X1306716Y824539D01*
X1306568Y824632D01*
X1306549Y824641D01*
X1306503Y824678D01*
X1306438Y824734D01*
X1306355Y824808D01*
X1306263Y824891D01*
X1306170Y824992D01*
X1306068Y825094D01*
X1305985Y825214D01*
X1305976Y825233D01*
X1305948Y825270D01*
X1305911Y825334D01*
X1305865Y825427D01*
X1305809Y825538D01*
X1305763Y825667D01*
X1305708Y825815D01*
X1305662Y825982D01*
Y826000D01*
X1305652Y826028D01*
X1305643Y826056D01*
X1305634Y826148D01*
X1305615Y826277D01*
X1305597Y826425D01*
X1305578Y826601D01*
X1305569Y826795D01*
X1305560Y827008D01*
Y829310D01*
X1311958D01*
Y826851D01*
D02*
G37*
G36*
X1310377Y822570D02*
X1310395Y822551D01*
X1310405Y822515D01*
X1310432Y822468D01*
X1310460Y822413D01*
X1310497Y822348D01*
X1310589Y822191D01*
X1310691Y822006D01*
X1310821Y821821D01*
X1310968Y821627D01*
X1311126Y821433D01*
X1311135Y821424D01*
X1311144Y821414D01*
X1311172Y821387D01*
X1311200Y821350D01*
X1311292Y821266D01*
X1311403Y821155D01*
X1311532Y821044D01*
X1311680Y820924D01*
X1311828Y820823D01*
X1311986Y820730D01*
Y820222D01*
X1305560D01*
Y821008D01*
X1310562D01*
X1310553Y821017D01*
X1310515Y821063D01*
X1310460Y821118D01*
X1310395Y821211D01*
X1310312Y821313D01*
X1310220Y821442D01*
X1310118Y821590D01*
X1310016Y821756D01*
Y821766D01*
X1310007Y821775D01*
X1309970Y821830D01*
X1309924Y821923D01*
X1309868Y822034D01*
X1309804Y822163D01*
X1309739Y822302D01*
X1309674Y822441D01*
X1309619Y822579D01*
X1310377D01*
Y822570D01*
D02*
G37*
G36*
X1311958Y753191D02*
X1311949Y753024D01*
X1311939Y752839D01*
X1311921Y752654D01*
X1311893Y752470D01*
X1311865Y752312D01*
Y752303D01*
X1311856Y752285D01*
Y752257D01*
X1311838Y752220D01*
X1311810Y752118D01*
X1311764Y751989D01*
X1311699Y751841D01*
X1311616Y751684D01*
X1311523Y751526D01*
X1311403Y751379D01*
X1311394Y751369D01*
X1311385Y751360D01*
X1311357Y751332D01*
X1311329Y751295D01*
X1311237Y751203D01*
X1311107Y751092D01*
X1310950Y750972D01*
X1310765Y750842D01*
X1310553Y750722D01*
X1310312Y750620D01*
X1310303D01*
X1310284Y750611D01*
X1310247Y750593D01*
X1310192Y750583D01*
X1310127Y750556D01*
X1310053Y750537D01*
X1309970Y750519D01*
X1309868Y750491D01*
X1309767Y750463D01*
X1309646Y750445D01*
X1309388Y750399D01*
X1309101Y750371D01*
X1308787Y750362D01*
X1308777D01*
X1308759D01*
X1308713D01*
X1308666D01*
X1308602Y750371D01*
X1308528D01*
X1308352Y750380D01*
X1308149Y750408D01*
X1307936Y750436D01*
X1307714Y750482D01*
X1307492Y750537D01*
X1307483D01*
X1307464Y750546D01*
X1307437Y750556D01*
X1307400Y750565D01*
X1307298Y750602D01*
X1307169Y750658D01*
X1307021Y750713D01*
X1306873Y750787D01*
X1306716Y750879D01*
X1306568Y750972D01*
X1306549Y750981D01*
X1306503Y751018D01*
X1306438Y751074D01*
X1306355Y751148D01*
X1306263Y751231D01*
X1306170Y751332D01*
X1306068Y751434D01*
X1305985Y751554D01*
X1305976Y751573D01*
X1305948Y751610D01*
X1305911Y751674D01*
X1305865Y751767D01*
X1305809Y751878D01*
X1305763Y752007D01*
X1305708Y752155D01*
X1305662Y752322D01*
Y752340D01*
X1305652Y752368D01*
X1305643Y752396D01*
X1305634Y752488D01*
X1305615Y752617D01*
X1305597Y752765D01*
X1305578Y752941D01*
X1305569Y753135D01*
X1305560Y753348D01*
Y755650D01*
X1311958D01*
Y753191D01*
D02*
G37*
G36*
X1305735Y749622D02*
X1305819Y749613D01*
X1305911Y749594D01*
X1306004Y749576D01*
X1306105Y749539D01*
X1306115D01*
X1306124Y749529D01*
X1306179Y749511D01*
X1306263Y749474D01*
X1306373Y749418D01*
X1306503Y749345D01*
X1306651Y749252D01*
X1306799Y749150D01*
X1306956Y749021D01*
X1306965D01*
X1306974Y749003D01*
X1307030Y748956D01*
X1307113Y748873D01*
X1307233Y748753D01*
X1307372Y748614D01*
X1307538Y748438D01*
X1307723Y748226D01*
X1307917Y747995D01*
X1307927Y747986D01*
X1307955Y747949D01*
X1308001Y747893D01*
X1308056Y747828D01*
X1308130Y747745D01*
X1308213Y747643D01*
X1308306Y747542D01*
X1308407Y747421D01*
X1308629Y747190D01*
X1308851Y746959D01*
X1308962Y746848D01*
X1309073Y746747D01*
X1309175Y746654D01*
X1309277Y746580D01*
X1309286D01*
X1309295Y746562D01*
X1309323Y746543D01*
X1309360Y746525D01*
X1309462Y746460D01*
X1309582Y746386D01*
X1309730Y746321D01*
X1309887Y746256D01*
X1310063Y746220D01*
X1310229Y746201D01*
X1310238D01*
X1310247D01*
X1310303Y746210D01*
X1310395Y746220D01*
X1310497Y746247D01*
X1310627Y746284D01*
X1310756Y746349D01*
X1310885Y746432D01*
X1311015Y746543D01*
X1311033Y746562D01*
X1311070Y746608D01*
X1311116Y746673D01*
X1311181Y746774D01*
X1311237Y746904D01*
X1311292Y747052D01*
X1311329Y747227D01*
X1311338Y747421D01*
Y747477D01*
X1311329Y747514D01*
X1311320Y747625D01*
X1311292Y747754D01*
X1311255Y747893D01*
X1311190Y748050D01*
X1311107Y748198D01*
X1310996Y748337D01*
X1310978Y748355D01*
X1310932Y748392D01*
X1310858Y748448D01*
X1310747Y748503D01*
X1310617Y748568D01*
X1310451Y748623D01*
X1310266Y748660D01*
X1310053Y748679D01*
X1310136Y749483D01*
X1310146D01*
X1310173Y749474D01*
X1310220D01*
X1310284Y749465D01*
X1310358Y749446D01*
X1310441Y749428D01*
X1310543Y749400D01*
X1310645Y749372D01*
X1310867Y749298D01*
X1311089Y749187D01*
X1311200Y749123D01*
X1311311Y749040D01*
X1311412Y748956D01*
X1311505Y748864D01*
X1311514Y748855D01*
X1311523Y748836D01*
X1311551Y748808D01*
X1311579Y748762D01*
X1311616Y748707D01*
X1311653Y748642D01*
X1311699Y748568D01*
X1311745Y748475D01*
X1311791Y748374D01*
X1311838Y748263D01*
X1311875Y748143D01*
X1311912Y748013D01*
X1311939Y747875D01*
X1311967Y747727D01*
X1311976Y747569D01*
X1311986Y747403D01*
Y747310D01*
X1311976Y747246D01*
X1311967Y747172D01*
X1311958Y747079D01*
X1311939Y746978D01*
X1311921Y746876D01*
X1311856Y746636D01*
X1311764Y746395D01*
X1311708Y746275D01*
X1311644Y746155D01*
X1311560Y746044D01*
X1311468Y745942D01*
X1311459Y745933D01*
X1311449Y745915D01*
X1311412Y745896D01*
X1311375Y745859D01*
X1311329Y745813D01*
X1311264Y745767D01*
X1311200Y745720D01*
X1311116Y745665D01*
X1310941Y745572D01*
X1310719Y745480D01*
X1310608Y745443D01*
X1310479Y745424D01*
X1310349Y745406D01*
X1310210Y745397D01*
X1310192D01*
X1310146D01*
X1310072Y745406D01*
X1309970Y745415D01*
X1309859Y745434D01*
X1309730Y745471D01*
X1309591Y745508D01*
X1309452Y745563D01*
X1309434Y745572D01*
X1309388Y745591D01*
X1309314Y745628D01*
X1309212Y745683D01*
X1309101Y745757D01*
X1308962Y745850D01*
X1308824Y745961D01*
X1308666Y746090D01*
X1308648Y746109D01*
X1308592Y746155D01*
X1308546Y746201D01*
X1308500Y746247D01*
X1308445Y746303D01*
X1308371Y746377D01*
X1308297Y746451D01*
X1308213Y746543D01*
X1308121Y746636D01*
X1308019Y746747D01*
X1307917Y746867D01*
X1307797Y746996D01*
X1307677Y747144D01*
X1307548Y747292D01*
X1307538Y747301D01*
X1307520Y747320D01*
X1307492Y747357D01*
X1307455Y747403D01*
X1307400Y747458D01*
X1307344Y747523D01*
X1307224Y747671D01*
X1307085Y747828D01*
X1306947Y747976D01*
X1306826Y748106D01*
X1306780Y748161D01*
X1306734Y748207D01*
X1306725Y748217D01*
X1306697Y748244D01*
X1306660Y748281D01*
X1306605Y748328D01*
X1306540Y748374D01*
X1306475Y748429D01*
X1306318Y748540D01*
Y745387D01*
X1305560D01*
Y749631D01*
X1305569D01*
X1305606D01*
X1305662D01*
X1305735Y749622D01*
D02*
G37*
%LPC*%
G36*
X1311200Y828459D02*
X1306318D01*
Y826943D01*
X1306327Y826879D01*
X1306337Y826740D01*
X1306346Y826583D01*
X1306364Y826416D01*
X1306392Y826250D01*
X1306429Y826111D01*
X1306438Y826093D01*
X1306447Y826046D01*
X1306475Y825982D01*
X1306512Y825898D01*
X1306568Y825806D01*
X1306623Y825714D01*
X1306688Y825621D01*
X1306762Y825529D01*
X1306780Y825519D01*
X1306817Y825482D01*
X1306882Y825427D01*
X1306974Y825362D01*
X1307095Y825288D01*
X1307233Y825205D01*
X1307390Y825131D01*
X1307566Y825066D01*
X1307575D01*
X1307594Y825057D01*
X1307622Y825048D01*
X1307659Y825039D01*
X1307705Y825029D01*
X1307770Y825011D01*
X1307834Y824992D01*
X1307908Y824974D01*
X1308093Y824946D01*
X1308306Y824918D01*
X1308546Y824900D01*
X1308805Y824891D01*
X1308814D01*
X1308851D01*
X1308898D01*
X1308972Y824900D01*
X1309055D01*
X1309147Y824909D01*
X1309258Y824918D01*
X1309369Y824928D01*
X1309619Y824974D01*
X1309878Y825029D01*
X1310118Y825113D01*
X1310238Y825168D01*
X1310340Y825223D01*
X1310349D01*
X1310368Y825242D01*
X1310395Y825260D01*
X1310432Y825279D01*
X1310525Y825353D01*
X1310636Y825445D01*
X1310756Y825566D01*
X1310876Y825704D01*
X1310978Y825862D01*
X1311061Y826028D01*
X1311070Y826046D01*
X1311080Y826093D01*
X1311107Y826176D01*
X1311135Y826296D01*
X1311154Y826444D01*
X1311181Y826629D01*
X1311190Y826740D01*
Y826860D01*
X1311200Y826980D01*
Y828459D01*
D02*
G37*
G36*
Y754799D02*
X1306318D01*
Y753283D01*
X1306327Y753219D01*
X1306337Y753080D01*
X1306346Y752923D01*
X1306364Y752756D01*
X1306392Y752590D01*
X1306429Y752451D01*
X1306438Y752433D01*
X1306447Y752386D01*
X1306475Y752322D01*
X1306512Y752238D01*
X1306568Y752146D01*
X1306623Y752054D01*
X1306688Y751961D01*
X1306762Y751869D01*
X1306780Y751859D01*
X1306817Y751822D01*
X1306882Y751767D01*
X1306974Y751702D01*
X1307095Y751628D01*
X1307233Y751545D01*
X1307390Y751471D01*
X1307566Y751406D01*
X1307575D01*
X1307594Y751397D01*
X1307622Y751388D01*
X1307659Y751379D01*
X1307705Y751369D01*
X1307770Y751351D01*
X1307834Y751332D01*
X1307908Y751314D01*
X1308093Y751286D01*
X1308306Y751258D01*
X1308546Y751240D01*
X1308805Y751231D01*
X1308814D01*
X1308851D01*
X1308898D01*
X1308972Y751240D01*
X1309055D01*
X1309147Y751249D01*
X1309258Y751258D01*
X1309369Y751268D01*
X1309619Y751314D01*
X1309878Y751369D01*
X1310118Y751453D01*
X1310238Y751508D01*
X1310340Y751563D01*
X1310349D01*
X1310368Y751582D01*
X1310395Y751600D01*
X1310432Y751619D01*
X1310525Y751693D01*
X1310636Y751785D01*
X1310756Y751906D01*
X1310876Y752044D01*
X1310978Y752202D01*
X1311061Y752368D01*
X1311070Y752386D01*
X1311080Y752433D01*
X1311107Y752516D01*
X1311135Y752636D01*
X1311154Y752784D01*
X1311181Y752969D01*
X1311190Y753080D01*
Y753200D01*
X1311200Y753320D01*
Y754799D01*
D02*
G37*
%LPD*%
D11*
X1230080Y606630D02*
Y711630D01*
X1320080D01*
Y606630D02*
Y711630D01*
X1230080Y606630D02*
X1320080D01*
X1139910Y605360D02*
Y710360D01*
X1229910D01*
Y605360D02*
Y710360D01*
X1139910Y605360D02*
X1229910D01*
X1010361Y639489D02*
Y668611D01*
X996239Y639489D02*
X1010361D01*
X996239D02*
Y668611D01*
X1010361D01*
X1081052Y642003D02*
Y662728D01*
X1070328Y642003D02*
X1081052D01*
X1070328D02*
Y662728D01*
X1081052D01*
X1111342Y703298D02*
Y714022D01*
Y703298D02*
X1132067D01*
Y714022D01*
X1111342D02*
X1132067D01*
X1184459Y730639D02*
Y752721D01*
Y730639D02*
X1228541D01*
Y752721D01*
X1184459D02*
X1228541D01*
X1184459Y754769D02*
Y776851D01*
Y754769D02*
X1228541D01*
Y776851D01*
X1184459D02*
X1228541D01*
X1320510Y795810D02*
Y862810D01*
X1290610Y795810D02*
X1320510D01*
X1290610D02*
Y862810D01*
X1320510D01*
X1272822Y817678D02*
Y838402D01*
X1262098Y817678D02*
X1272822D01*
X1262098D02*
Y838402D01*
X1272822D01*
X1320510Y722150D02*
Y789150D01*
X1290610Y722150D02*
X1320510D01*
X1290610D02*
Y789150D01*
X1320510D01*
X1276632Y746558D02*
Y767282D01*
X1265908Y746558D02*
X1276632D01*
X1265908D02*
Y767282D01*
X1276632D01*
M02*
