G04*
G04 #@! TF.GenerationSoftware,Altium Limited,Altium Designer,23.3.1 (30)*
G04*
G04 Layer_Color=16711935*
%FSLAX44Y44*%
%MOMM*%
G71*
G04*
G04 #@! TF.SameCoordinates,C21C2CC1-9CAE-44D3-A5A2-357AACA34620*
G04*
G04*
G04 #@! TF.FilePolarity,Positive*
G04*
G01*
G75*
%ADD11C,0.2000*%
%ADD43C,0.1000*%
D11*
X1232580Y616630D02*
Y701630D01*
X1317580D01*
Y616630D02*
Y701630D01*
X1232580Y616630D02*
X1317580D01*
X1142410Y615360D02*
Y700360D01*
X1227410D01*
Y615360D02*
Y700360D01*
X1142410Y615360D02*
X1227410D01*
X1007300Y646050D02*
Y662050D01*
X999300Y646050D02*
X1007300D01*
X999300D02*
Y662050D01*
X1007300D01*
X1078190Y647366D02*
Y657366D01*
X1073190Y647366D02*
X1078190D01*
X1073190D02*
Y657366D01*
X1078190D01*
X1116704Y706160D02*
Y711160D01*
Y706160D02*
X1126704D01*
Y711160D01*
X1116704D02*
X1126704D01*
X1191250Y733930D02*
Y749430D01*
Y733930D02*
X1221750D01*
Y749430D01*
X1191250D02*
X1221750D01*
X1191250Y758060D02*
Y773560D01*
Y758060D02*
X1221750D01*
Y773560D01*
X1191250D02*
X1221750D01*
X1319510Y806310D02*
Y852310D01*
X1291610Y806310D02*
X1319510D01*
X1291610D02*
Y852310D01*
X1319510D01*
X1269960Y823040D02*
Y833040D01*
X1264960Y823040D02*
X1269960D01*
X1264960D02*
Y833040D01*
X1269960D01*
X1319510Y732650D02*
Y778650D01*
X1291610Y732650D02*
X1319510D01*
X1291610D02*
Y778650D01*
X1319510D01*
X1273770Y751920D02*
Y761920D01*
X1268770Y751920D02*
X1273770D01*
X1268770D02*
Y761920D01*
X1273770D01*
D43*
X989530Y693168D02*
G03*
X1017178Y696397I12500J12952D01*
G01*
Y702597D02*
G03*
X1017178Y709643I-3548J3523D01*
G01*
X1002030Y702945D02*
G03*
X1002030Y709295I0J3175D01*
G01*
D02*
G03*
X1002030Y702945I0J-3175D01*
G01*
X1017178Y715843D02*
G03*
X989530Y719072I-15148J-9723D01*
G01*
X1029620Y653075D02*
G03*
X1029620Y653075I-5000J0D01*
G01*
X993340Y796038D02*
G03*
X1020988Y799267I12500J12952D01*
G01*
Y805467D02*
G03*
X1020988Y812513I-3548J3523D01*
G01*
X1005840Y805815D02*
G03*
X1005840Y812165I0J3175D01*
G01*
D02*
G03*
X1005840Y805815I0J-3175D01*
G01*
X1020988Y818713D02*
G03*
X993340Y821942I-15148J-9723D01*
G01*
X1083700Y767070D02*
G03*
X1083700Y767070I-5000J0D01*
G01*
X1020030Y713620D02*
Y721120D01*
Y691120D02*
Y698620D01*
X1017030Y688120D02*
X1020030Y691120D01*
X1017178Y698820D02*
X1021530D01*
X986030Y715072D02*
X989530D01*
X986030Y697168D02*
Y715072D01*
X1017178Y696397D02*
Y702597D01*
X1020030Y701920D02*
Y710320D01*
X982030Y688120D02*
X1017030D01*
X1021530Y698820D02*
Y701870D01*
X1017178Y713420D02*
X1021530D01*
X1020030Y701870D02*
X1021530D01*
X1017030Y724120D02*
X1020030Y721120D01*
X989530Y693168D02*
Y697168D01*
X986030D02*
X989530D01*
X1021530Y710370D02*
Y713420D01*
X1020030Y710370D02*
X1021530D01*
X989530Y715072D02*
Y719072D01*
X1017178Y709643D02*
Y715843D01*
X982030Y688120D02*
Y724120D01*
X982030Y724120D02*
X1017030D01*
X1016240Y646075D02*
X1063370D01*
X1016240Y669850D02*
X1063370D01*
X1016240Y646075D02*
Y669850D01*
X1063370Y646075D02*
Y669850D01*
X1023840Y816490D02*
Y823990D01*
Y793990D02*
Y801490D01*
X1020840Y790990D02*
X1023840Y793990D01*
X1020988Y801690D02*
X1025340D01*
X989840Y817942D02*
X993340D01*
X989840Y800038D02*
Y817942D01*
X1020988Y799267D02*
Y805467D01*
X1023840Y804790D02*
Y813190D01*
X985840Y790990D02*
X1020840D01*
X1025340Y801690D02*
Y804740D01*
X1020988Y816290D02*
X1025340D01*
X1023840Y804740D02*
X1025340D01*
X1020840Y826990D02*
X1023840Y823990D01*
X993340Y796038D02*
Y800038D01*
X989840D02*
X993340D01*
X1025340Y813240D02*
Y816290D01*
X1023840Y813240D02*
X1025340D01*
X993340Y817942D02*
Y821942D01*
X1020988Y812513D02*
Y818713D01*
X985840Y790990D02*
Y826990D01*
X985840Y826990D02*
X1020840D01*
X1069700Y725070D02*
Y776070D01*
X1114700Y725070D02*
Y776070D01*
X1069700D02*
X1114700D01*
X1069700Y725070D02*
X1114700D01*
X1009480Y732580D02*
Y738080D01*
X1019980Y732580D02*
Y738080D01*
X1009480D02*
X1019980D01*
X1009480Y732580D02*
X1019980D01*
X1008210Y747820D02*
Y753320D01*
X1018710Y747820D02*
Y753320D01*
X1008210D02*
X1018710D01*
X1008210Y747820D02*
X1018710D01*
X1039630Y806660D02*
X1050130D01*
X1039630Y801160D02*
X1050130D01*
X1039630D02*
Y806660D01*
X1050130Y801160D02*
Y806660D01*
X1042500Y711410D02*
X1053000D01*
X1042500Y705910D02*
X1053000D01*
X1042500D02*
Y711410D01*
X1053000Y705910D02*
Y711410D01*
X1008210Y777030D02*
Y782530D01*
X1018710Y777030D02*
Y782530D01*
X1008210D02*
X1018710D01*
X1008210Y777030D02*
X1018710D01*
X1009480Y760520D02*
Y766020D01*
X1019980Y760520D02*
Y766020D01*
X1009480D02*
X1019980D01*
X1009480Y760520D02*
X1019980D01*
M02*
