G04*
G04 #@! TF.GenerationSoftware,Altium Limited,Altium Designer,23.3.1 (30)*
G04*
G04 Layer_Color=16711935*
%FSLAX44Y44*%
%MOMM*%
G71*
G04*
G04 #@! TF.SameCoordinates,C21C2CC1-9CAE-44D3-A5A2-357AACA34620*
G04*
G04*
G04 #@! TF.FilePolarity,Negative*
G04*
G01*
G75*
G04:AMPARAMS|DCode=35|XSize=1.8032mm|YSize=1.8032mm|CornerRadius=0.5016mm|HoleSize=0mm|Usage=FLASHONLY|Rotation=90.000|XOffset=0mm|YOffset=0mm|HoleType=Round|Shape=RoundedRectangle|*
%AMROUNDEDRECTD35*
21,1,1.8032,0.8000,0,0,90.0*
21,1,0.8000,1.8032,0,0,90.0*
1,1,1.0032,0.4000,0.4000*
1,1,1.0032,0.4000,-0.4000*
1,1,1.0032,-0.4000,-0.4000*
1,1,1.0032,-0.4000,0.4000*
%
%ADD35ROUNDEDRECTD35*%
%ADD36C,1.8032*%
%ADD37C,0.7032*%
D35*
X918210Y640080D02*
D03*
X1344930Y815340D02*
D03*
X916940Y708660D02*
D03*
X1346200Y745490D02*
D03*
D36*
X918210Y665480D02*
D03*
X1344930Y840740D02*
D03*
X916940Y810260D02*
D03*
Y784860D02*
D03*
Y734060D02*
D03*
Y759460D02*
D03*
X1346200Y770890D02*
D03*
D37*
X1129030Y622300D02*
D03*
X974090Y793750D02*
D03*
X971550Y698500D02*
D03*
X1145540Y727710D02*
D03*
X1155420Y754010D02*
D03*
X1156970Y734060D02*
D03*
X1162050Y748030D02*
D03*
X1122680Y786130D02*
D03*
X1075690Y670560D02*
D03*
X1060450Y803910D02*
D03*
X1220470Y784860D02*
D03*
X1003300Y675640D02*
D03*
X1258570Y760730D02*
D03*
X1259840Y750570D02*
D03*
X1256030Y824230D02*
D03*
Y833120D02*
D03*
X1156970Y767080D02*
D03*
X1081200Y761570D02*
D03*
X1092200D02*
D03*
X1103200D02*
D03*
X1081200Y750570D02*
D03*
X1092200D02*
D03*
X1103200D02*
D03*
X1081200Y739570D02*
D03*
X1092200D02*
D03*
X1103200D02*
D03*
M02*
